<svg width="20" height="26" viewBox="0 0 20 26" fill="none"
    xmlns="http://www.w3.org/2000/svg">
    <path fill-rule="evenodd" clip-rule="evenodd" d="M0 23.7863V5.95981C0 5.59211 0.29897 5.29314 0.670106 5.29314H3.94503C3.9519 2.38935 6.32305 0.00102023 9.2234 0.00102023C9.34589 0.00102023 9.46677 0.000606292 9.58614 0.000197504C11.4426 -0.00615988 12.9356 -0.0112725 14.4983 1.56116C15.4537 2.51993 16.0447 3.83952 16.0482 5.29314H19.3265C19.6942 5.29314 19.9932 5.59211 19.9932 5.95981V23.7863C19.9932 24.9994 19.0001 25.9994 17.787 25.9994H2.20619C0.993131 25.9994 0 24.9994 0 23.7863ZM15.8832 20.7966H4.11342C3.06874 20.7966 3.06874 22.7176 4.11342 22.7176H15.8832C16.9245 22.7176 16.9245 20.7966 15.8832 20.7966ZM14.7148 5.29314H5.28181C5.28524 4.20378 5.72854 3.21753 6.43989 2.50275C7.6289 1.30756 8.82346 1.31972 10.2705 1.33444C10.4336 1.3361 10.5999 1.33779 10.7698 1.33779C12.9416 1.33779 14.7045 3.11787 14.7148 5.29314Z" fill="#9AA1AF"/>
</svg>
