<svg width="42" height="54" viewBox="0 0 42 54" fill="none" xmlns="http://www.w3.org/2000/svg">
<path fill-rule="evenodd" clip-rule="evenodd" d="M25.8311 3.56H29.48C30.4074 3.56 31.16 4.31264 31.16 5.24V11.96C31.16 12.8874 30.4074 13.64 29.48 13.64H12.68C11.7527 13.64 11 12.8874 11 11.96V5.24C11 4.31264 11.7527 3.56 12.68 3.56H16.3256C17.0211 1.60448 18.8893 0.199997 21.08 0.199997C23.2707 0.199997 25.1389 1.60448 25.8311 3.56ZM34.52 6.92H37.88C39.765 6.92 41.24 8.39504 41.24 10.28V50.6C41.24 52.485 39.765 53.96 37.88 53.96H4.28001C2.39505 53.96 0.920013 52.485 0.920013 50.6V10.28C0.920013 8.42864 2.42865 6.92 4.28001 6.92H7.64001V11.96C7.64001 14.7387 9.90129 17 12.68 17H29.48C32.2587 17 34.52 14.7387 34.52 11.96V6.92ZM13.8695 43.3894L20.5895 36.6694C21.2447 36.0109 21.2413 34.9491 20.5861 34.2939C19.9309 33.6387 18.8658 33.6387 18.2106 34.2939L12.68 39.8245L10.5061 37.6539C9.85089 36.9987 8.78577 36.9987 8.13057 37.6539C7.47537 38.3091 7.47537 39.3742 8.13057 40.0294L11.4906 43.3894C11.8199 43.7154 12.2499 43.88 12.68 43.88C13.1101 43.88 13.5402 43.7154 13.8695 43.3894ZM20.5895 23.2294L13.8695 29.9494C13.5402 30.2754 13.1101 30.44 12.68 30.44C12.2499 30.44 11.8199 30.2754 11.4906 29.9494L8.13057 26.5894C7.47537 25.9342 7.47537 24.8691 8.13057 24.2139C8.78577 23.5587 9.85089 23.5587 10.5061 24.2139L12.68 26.3845L18.2106 20.8539C18.8658 20.1987 19.9309 20.1987 20.5861 20.8539C21.2413 21.5091 21.2447 22.5709 20.5895 23.2294ZM26.12 40.52H32.84C33.7674 40.52 34.52 39.7674 34.52 38.84C34.52 37.9126 33.7674 37.16 32.84 37.16H26.12C25.1927 37.16 24.44 37.9126 24.44 38.84C24.44 39.7674 25.1927 40.52 26.12 40.52ZM32.84 27.08H26.12C25.1927 27.08 24.44 26.3274 24.44 25.4C24.44 24.4726 25.1927 23.72 26.12 23.72H32.84C33.7674 23.72 34.52 24.4726 34.52 25.4C34.52 26.3274 33.7674 27.08 32.84 27.08Z" fill="#16284D"/>
</svg>
