<svg width="35" height="30" viewBox="0 0 35 30" fill="none" xmlns="http://www.w3.org/2000/svg">
<path d="M34.2458 2.16309V18.4747C34.2458 19.6627 33.2932 20.6153 32.1051 20.6153H6.11792C4.92987 20.6153 3.97729 19.6627 3.97729 18.4747V2.16309C3.97729 0.985743 4.92987 0.0224609 6.11792 0.0224609H32.1051C33.2932 0.0224609 34.2458 0.985743 34.2458 2.16309Z" fill="#777C85"/>
<rect opacity="0.287319" x="3.97192" y="3.91602" width="30.2792" height="3.47638" fill="#16284D"/>
<path d="M26.3543 0.899414H19.4465C18.8557 0.899414 18.3762 1.37784 18.3762 1.96973C18.3762 2.56161 18.8557 3.04004 19.4465 3.04004H26.3543C26.9452 3.04004 27.4247 2.56161 27.4247 1.96973C27.4247 1.37891 26.9452 0.899414 26.3543 0.899414Z" fill="#9AA1AF"/>
<path d="M31.3451 0.899414H29.4731C28.8823 0.899414 28.4028 1.37784 28.4028 1.96973C28.4028 2.56161 28.8823 3.04004 29.4731 3.04004H31.3451C31.9359 3.04004 32.4154 2.56161 32.4154 1.96973C32.4154 1.37891 31.937 0.899414 31.3451 0.899414Z" fill="#9AA1AF"/>
<path opacity="0.419131" d="M12.0272 4.58398H6.80835C6.21754 4.58398 5.73804 5.06241 5.73804 5.6543C5.73804 6.24618 6.21754 6.72461 6.80835 6.72461H12.0272C12.618 6.72461 13.0975 6.24618 13.0975 5.6543C13.0975 5.06241 12.6191 4.58398 12.0272 4.58398Z" fill="#16284D"/>
<path opacity="0.419131" d="M17.0191 4.58398H15.1482C14.5574 4.58398 14.0779 5.06241 14.0779 5.6543C14.0779 6.24618 14.5574 6.72461 15.1482 6.72461H17.0191C17.6099 6.72461 18.0894 6.24618 18.0894 5.6543C18.0894 5.06241 17.6099 4.58398 17.0191 4.58398Z" fill="#16284D"/>
<g opacity="0.07">
<path d="M34.2457 14.3321V18.4742C34.2457 19.6623 33.2931 20.6149 32.1051 20.6149H29.5149L30.2534 10.3398L34.2457 14.3321Z" fill="#010101"/>
</g>
<path d="M28.1364 29.0111H2.14063C0.957931 29.0111 0 28.0532 0 26.8705V10.5557C0 9.37404 0.957931 8.41504 2.14063 8.41504H28.1364C29.3191 8.41504 30.277 9.37404 30.277 10.5557V26.8694C30.277 28.0521 29.3191 29.0111 28.1364 29.0111Z" fill="#3ED0A3"/>
<path d="M13.8285 8.41504C7.14969 13.4776 2.45102 19.9637 0.0214063 27.0813C0.0107031 26.9957 0 26.9101 0 26.8137V10.5022C0 9.48535 0.706407 8.6291 1.65899 8.41504H13.8285Z" fill="#23AD83"/>
<path d="M16.4497 29.011C23.1285 23.9484 27.8271 17.4623 30.2568 10.3447C30.2675 10.4304 30.2782 10.516 30.2782 10.6123V26.9239C30.2782 27.9407 29.5718 28.7969 28.6192 29.011H16.4497Z" fill="#23AD83"/>
<circle cx="20.7159" cy="14.2333" r="2.60728" fill="#FEB918"/>
<circle cx="24.4598" cy="14.2333" r="2.60728" fill="#F2482F"/>
<path d="M8.95843 20.7969H3.89478C3.30396 20.7969 2.82446 20.3184 2.82446 19.7266C2.82446 19.1347 3.30396 18.6562 3.89478 18.6562H8.95843C9.54924 18.6562 10.0287 19.1347 10.0287 19.7266C10.0287 20.3174 9.54924 20.7969 8.95843 20.7969Z" fill="white"/>
<path d="M13.4816 15.3037H3.89478C3.30396 15.3037 2.82446 14.8253 2.82446 14.2334C2.82446 13.6415 3.30396 13.1631 3.89478 13.1631H13.4816C14.0724 13.1631 14.5519 13.6415 14.5519 14.2334C14.5519 14.8253 14.0724 15.3037 13.4816 15.3037Z" fill="white"/>
<path d="M7.02982 26.2891H3.8938C3.30299 26.2891 2.82349 25.8106 2.82349 25.2188C2.82349 24.6269 3.30299 24.1484 3.8938 24.1484H7.02982C7.62063 24.1484 8.10013 24.6269 8.10013 25.2188C8.10013 25.8096 7.6217 26.2891 7.02982 26.2891Z" fill="#CFF4E8"/>
<path d="M13.4817 26.2891H10.3457C9.75489 26.2891 9.27539 25.8106 9.27539 25.2188C9.27539 24.6269 9.75489 24.1484 10.3457 24.1484H13.4817C14.0725 24.1484 14.552 24.6269 14.552 25.2188C14.552 25.8096 14.0725 26.2891 13.4817 26.2891Z" fill="#DAEFF6"/>
<path d="M19.9324 26.2891H16.7964C16.2056 26.2891 15.7261 25.8106 15.7261 25.2188C15.7261 24.6269 16.2056 24.1484 16.7964 24.1484H19.9324C20.5232 24.1484 21.0027 24.6269 21.0027 25.2188C21.0027 25.8096 20.5232 26.2891 19.9324 26.2891Z" fill="#CFF4E8"/>
<path d="M26.3833 26.2891H23.2473C22.6565 26.2891 22.177 25.8106 22.177 25.2188C22.177 24.6269 22.6565 24.1484 23.2473 24.1484H26.3833C26.9741 24.1484 27.4536 24.6269 27.4536 25.2188C27.4536 25.8096 26.9741 26.2891 26.3833 26.2891Z" fill="#DAEFF6"/>
</svg>
