<svg width="30" height="30" viewBox="0 0 30 30" fill="none" xmlns="http://www.w3.org/2000/svg">
<circle cx="15" cy="15" r="15" fill="white"/>
<path fill-rule="evenodd" clip-rule="evenodd" d="M8.5 13.0189C8.5 9.42437 11.4159 6.5 15 6.5C18.5841 6.5 21.4999 9.42437 21.5 13.0189C21.5 17.4798 15.6831 24.0287 15.4355 24.3053C15.2033 24.5647 14.7971 24.5651 14.5645 24.3053C14.3169 24.0287 8.5 17.4798 8.5 13.0189ZM11.7297 13.0189C11.7297 14.8274 13.1967 16.2987 15 16.2987C16.8032 16.2987 18.2702 14.8274 18.2702 13.0189C18.2702 11.2104 16.8032 9.73909 15 9.73909C13.1968 9.73909 11.7297 11.2104 11.7297 13.0189Z" fill="#FF870C"/>
</svg>
