<svg width="341" height="340" viewBox="0 0 341 340" fill="none" xmlns="http://www.w3.org/2000/svg">
<path d="M293.533 51.2582L291.899 48.5983C278.129 26.1938 253.234 12.6863 226.99 14.313C223.621 14.5262 220.271 14.9822 216.968 15.6777C193.106 20.7198 172.344 38.5448 163.77 61.3656C158.713 74.7883 157.294 90.2387 147.688 100.894C135.19 114.771 113.965 115.195 95.3078 114.625C76.6502 114.054 55.4099 114.54 42.9663 128.456C35.1718 137.176 32.6969 149.573 33.3291 161.245C34.9944 192.154 56.8053 219.793 84.545 233.532C112.285 247.271 144.943 248.504 175.304 242.46C217.831 233.979 258.277 210.742 282.585 174.838C306.894 138.933 313.016 90.0151 293.533 51.2582Z" fill="#EBEBEB"/>
<path d="M331.257 319.889C331.257 320.005 257.151 320.089 165.767 320.089C74.3838 320.089 0.262207 320.005 0.262207 319.889C0.262207 319.773 74.3529 319.688 165.767 319.688C257.182 319.688 331.257 319.781 331.257 319.889Z" fill="#263238"/>
<path d="M88.0528 36.9412C91.6886 41.3906 93.6573 46.9695 93.6192 52.7153C93.5807 55.9688 92.9793 59.5539 94.8759 62.1983C96.3099 64.2028 98.9312 65.2128 100.095 67.387C101.499 70.0006 100.304 73.3081 101.167 76.1452C102.385 80.1697 107.104 81.8582 109.902 84.996C112.325 87.8135 113.191 91.6494 112.215 95.2346C111.181 98.802 108.487 101.65 104.983 102.883C103.139 103.61 101.082 103.576 99.2628 102.79C97.3739 101.85 96.1789 99.9144 95.2537 98.0255C93.3956 94.3094 77.0741 74.2255 76.1489 70.1702" fill="#263238"/>
<path d="M76.1799 32.2074C69.5033 31.1281 63.0734 35.5612 60.2747 41.7135C57.4761 47.8659 57.3836 54.8201 57.1908 61.6047C56.9981 68.3893 56.5047 75.4206 53.0584 81.2337C50.8688 84.9267 47.4765 88.1725 46.9446 92.4206C46.4666 96.2292 48.4403 100.069 47.7849 103.854C47.2144 107.154 44.701 110.022 44.8013 113.36C44.9246 117.385 49.0647 120.415 53.0815 120.523C57.0983 120.631 60.8607 118.526 64.014 116.028C69.1515 111.949 73.2626 106.723 76.018 100.77" fill="#263238"/>
<path d="M65.1936 48.1204C64.7699 44.7272 65.7395 41.3071 67.881 38.6411C70.0225 35.9752 73.153 34.2909 76.5578 33.973C83.2884 33.3254 89.2789 38.3445 90.2889 45.0365C91.1755 50.9036 91.931 56.8247 91.9079 58.9757C91.8231 65.4596 88.053 67.9807 86.5111 68.744C85.9564 68.9431 85.383 69.0852 84.7995 69.168L86.2335 76.6157C86.8889 81.4959 84.1673 85.8674 79.2948 86.5535C74.4222 87.2397 70.5905 83.5159 69.8426 78.6356L65.1936 48.1204Z" fill="#FFBE9D"/>
<path d="M88.9626 47.8737C88.8546 48.0279 87.9988 47.573 86.9041 47.7349C85.8093 47.8968 85.0769 48.5598 84.9381 48.4442C84.7993 48.3285 84.9381 48.1358 85.2773 47.8274C85.6989 47.4167 86.2377 47.1473 86.8193 47.0564C87.3898 46.9684 87.9734 47.0657 88.4846 47.334C88.8701 47.5807 89.0165 47.812 88.9626 47.8737Z" fill="#263238"/>
<path d="M79.2023 50.2481C79.0944 50.4023 78.2386 49.9397 77.1361 50.1016C76.0336 50.2635 75.3166 50.9343 75.1778 50.8186C75.039 50.703 75.1778 50.5025 75.5171 50.2018C75.9386 49.7911 76.4775 49.5217 77.059 49.4309C77.6303 49.3495 78.2127 49.4493 78.7243 49.7161C79.1021 49.9551 79.2563 50.1787 79.2023 50.2481Z" fill="#263238"/>
<path d="M83.2034 56.1308C83.7549 55.8656 84.3377 55.6713 84.9381 55.5526C85.2156 55.4832 85.4701 55.3907 85.4932 55.1903C85.4682 54.9086 85.361 54.6405 85.1848 54.4193L84.036 52.3685C82.4401 49.5005 81.2451 47.1259 81.3608 47.0565C81.4764 46.9871 82.9027 49.2769 84.4447 52.1449C84.8379 52.8542 85.2156 53.5327 85.5549 54.1726C85.7789 54.4861 85.8878 54.8674 85.8633 55.2519C85.8117 55.4652 85.6634 55.6421 85.4623 55.7299C85.312 55.7957 85.154 55.8423 84.9921 55.8687C84.4098 56.0337 83.8085 56.1218 83.2034 56.1308Z" fill="#263238"/>
<path d="M84.738 69.1758C84.738 69.1758 80.5516 70.1395 74.7847 67.7263C74.7847 67.7263 77.2749 73.0846 85.1312 71.1803L84.738 69.1758Z" fill="#EB996E"/>
<path d="M78.6395 47.3724C78.5778 47.6885 77.4599 47.7039 76.1955 48.0508C74.9311 48.3978 73.9365 48.8912 73.7284 48.6522C73.6359 48.5365 73.7746 48.2281 74.1524 47.8812C75.1831 46.9996 76.5622 46.6414 77.8916 46.9098C78.4005 47.0254 78.6395 47.2259 78.6395 47.3724Z" fill="#263238"/>
<path d="M88.0609 45.445C87.9067 45.7226 87.1126 45.5761 86.2028 45.6917C85.2931 45.8074 84.5453 46.1081 84.3294 45.869C84.2369 45.7534 84.3294 45.4913 84.6223 45.206C85.0267 44.8476 85.534 44.6263 86.0718 44.5738C86.6028 44.5098 87.1407 44.6093 87.6137 44.8591C87.9838 45.0672 88.1303 45.3062 88.0609 45.445Z" fill="#263238"/>
<path d="M76.8199 51.6669C76.8541 51.9079 76.9835 52.1251 77.1791 52.27C77.3747 52.4149 77.6202 52.4754 77.8607 52.4379C78.0946 52.411 78.3078 52.2913 78.4528 52.1058C78.5977 51.9203 78.6621 51.6845 78.6317 51.451C78.5564 50.9512 78.091 50.6065 77.5909 50.6801C77.3561 50.705 77.1415 50.824 76.9962 51.0101C76.8509 51.1961 76.7872 51.4331 76.8199 51.6669Z" fill="#263238"/>
<path d="M86.5421 49.5619C86.6174 50.0618 87.0828 50.4065 87.5829 50.3329C87.8167 50.306 88.03 50.1864 88.1749 50.0009C88.3199 49.8154 88.3843 49.5795 88.3539 49.3461C88.2785 48.8462 87.8131 48.5015 87.313 48.5751C87.0783 48.6 86.8637 48.7191 86.7184 48.9051C86.573 49.0911 86.5094 49.3281 86.5421 49.5619Z" fill="#263238"/>
<path d="M84.9307 58.2587C84.3062 58.0644 83.6319 58.3432 83.327 58.9218C83.0377 59.4496 83.1151 60.1029 83.5198 60.5485C83.9538 60.9748 84.6328 61.0238 85.1234 60.6642C85.4208 60.3934 85.6006 60.0171 85.6245 59.6156C85.6769 59.2476 85.5888 58.8732 85.3778 58.5671C85.1552 58.2594 84.7538 58.1393 84.3987 58.2741" fill="#EB996E"/>
<path d="M89.4331 39.7552C88.8279 37.3125 87.3178 35.1907 85.2082 33.8187C83.4813 32.5714 81.4301 31.8511 79.3025 31.7448C77.1617 31.6526 75.0715 32.4122 73.4893 33.8573C72.3666 34.9701 71.7245 36.4785 71.7007 38.0591L71.824 36.9797C71.5001 37.858 71.5001 38.823 71.824 39.7013C72.0014 40.1716 72.2172 40.6496 72.4023 41.1199C72.9542 42.4789 73.9781 43.5931 75.2857 44.2577C75.8779 44.5754 76.5412 44.7372 77.2131 44.728C77.8941 44.7143 78.5343 44.4013 78.9633 43.8723C79.442 43.0365 79.5905 42.0519 79.3796 41.1122C79.8855 42.0408 80.6074 42.8341 81.4843 43.4251C82.4072 44.0149 83.6173 43.8765 84.3832 43.0936C85.0154 42.3226 84.7687 41.1045 84.3832 40.1484C84.9797 41.0502 85.8152 41.7682 86.7964 42.2224C87.3183 42.5218 87.9419 42.5889 88.5156 42.4074C88.9753 42.1794 89.305 41.7532 89.41 41.2509C89.5244 40.7597 89.5323 40.2497 89.4331 39.7552Z" fill="#263238"/>
<path d="M83.8587 41.806C83.7893 41.806 83.8047 40.8886 83.5041 39.4931C83.1572 37.6388 82.225 35.9445 80.8442 34.6591C80.0853 33.969 79.1697 33.4741 78.1766 33.2174C77.3633 33.0177 76.5163 32.9967 75.6941 33.1557C74.9362 33.3328 74.2123 33.6323 73.5508 34.0423C73.5508 34.0423 73.6818 33.8496 74.0211 33.6028C74.5079 33.2623 75.0546 33.0164 75.6324 32.8781C76.4971 32.6757 77.3968 32.6757 78.2614 32.8781C79.3268 33.1441 80.3079 33.6744 81.114 34.4201C82.5598 35.7585 83.5039 37.5514 83.7893 39.5008C83.8811 40.0771 83.9275 40.6597 83.9281 41.2432C83.9376 41.4334 83.9142 41.6238 83.8587 41.806Z" fill="#455A64"/>
<path d="M154.866 131.694L125.222 119.937C125.222 119.937 110.041 100.022 110.357 99.637L99.6948 111.31L115.191 132.272L151.111 140.691L157.279 138.98C155.922 132.434 154.866 131.694 154.866 131.694Z" fill="#FFBE9D"/>
<path d="M90.2579 74.8808L86.218 73.3389L68.7785 75.5516V78.6355L68.2774 78.6971C64.5181 79.4964 60.9124 80.897 57.5994 82.845C51.2505 86.7206 47.8939 94.0655 49.1186 101.402C49.8279 105.812 51.2003 111.171 53.8524 114.27C58.9177 120.199 63.5436 112.874 63.5436 112.874C63.5436 112.874 66.72 120.122 66.535 123.552C66.3808 126.428 65.1164 132.411 64.7078 134.277C64.6738 134.427 64.7033 134.585 64.7894 134.714C64.8754 134.842 65.0103 134.929 65.1626 134.955L101.954 141.763L102.131 132.766L100.959 95.7588L99.3014 81.3878C99.3014 81.3878 99.3554 74.5262 90.2579 74.8808Z" fill="#3ED0A3"/>
<path d="M98.7388 78.9978L112.771 99.2667L101.476 113.021L98.7388 78.9978Z" fill="#3ED0A3"/>
<path d="M101.769 121.648C101.718 121.213 101.7 120.775 101.715 120.338C101.715 119.428 101.715 118.233 101.669 116.776C101.6 112.865 101.32 108.96 100.828 105.08C100.25 100.531 99.3634 96.4682 98.6926 93.5153L97.8754 90.0459C97.7569 89.6263 97.6693 89.1985 97.6133 88.7661C97.7886 89.1667 97.928 89.5821 98.0296 90.0074C98.2686 90.7784 98.5924 91.9888 98.9625 93.4536C99.9579 97.2576 100.715 101.12 101.229 105.018C101.725 108.915 101.967 112.84 101.954 116.768C101.954 118.31 101.915 119.497 101.869 120.338C101.873 120.776 101.839 121.215 101.769 121.648Z" fill="#263238"/>
<path d="M67.229 90.8324C67.229 90.8941 66.165 90.8863 64.4612 90.9712C62.238 91.0917 60.0269 91.3778 57.8462 91.8269C55.6661 92.2845 53.5222 92.9003 51.4317 93.6696C49.8281 94.2632 48.8643 94.7027 48.8335 94.641C49.0311 94.4861 49.249 94.359 49.4811 94.2632C49.9052 94.0319 50.5374 93.739 51.3315 93.4074C55.4916 91.6895 59.9377 90.7689 64.438 90.6936C65.3015 90.6936 65.98 90.6936 66.4811 90.7399C66.7337 90.7317 66.986 90.7629 67.229 90.8324Z" fill="#FAFAFA"/>
<path d="M99.7255 100.107C99.1616 100.312 98.5731 100.442 97.9754 100.493C95.1245 100.909 92.2362 101.007 89.3636 100.786C88.7636 100.775 88.1676 100.687 87.5903 100.523C88.1854 100.471 88.7839 100.471 89.379 100.523C90.4738 100.523 91.9926 100.523 93.6656 100.523C95.3386 100.523 96.8497 100.354 97.9445 100.254C98.5325 100.151 99.1286 100.102 99.7255 100.107Z" fill="#FAFAFA"/>
<path d="M106.163 90.9402C105.313 91.9221 104.295 92.7445 103.156 93.3688C102.081 94.0955 100.882 94.6182 99.6177 94.9107C99.5714 94.8028 101.16 94.1398 102.948 92.9987C104.737 91.8577 106.086 90.8477 106.163 90.9402Z" fill="#FAFAFA"/>
<path d="M100.497 81.5422C98.0641 83.7303 94.9648 85.0341 91.6997 85.2429C91.6997 85.1195 93.8199 84.7957 96.2562 83.7549C98.6925 82.7141 100.419 81.442 100.497 81.5422Z" fill="#FAFAFA"/>
<path d="M101.26 115.804C101.033 115.957 100.79 116.083 100.535 116.182C100.05 116.413 99.3479 116.698 98.4536 117.03C96.1301 117.865 93.7316 118.474 91.2913 118.849C88.8511 119.226 86.3799 119.363 83.913 119.258C82.9647 119.22 82.2015 119.15 81.6772 119.081C81.4027 119.063 81.1311 119.013 80.8677 118.934C80.8677 118.865 82.0396 118.934 83.9516 118.981C88.8534 119.026 93.7303 118.276 98.3919 116.76C100.15 116.182 101.237 115.742 101.26 115.804Z" fill="#FAFAFA"/>
<path d="M101.545 126.251C101.545 126.251 101.437 126.328 101.214 126.444L100.227 126.875C99.3787 127.276 98.122 127.801 96.5492 128.417C94.9764 129.034 93.0721 129.628 90.9288 130.214C86.2692 131.469 81.4865 132.211 76.6658 132.426C74.4454 132.511 72.4485 132.504 70.7678 132.426C69.0871 132.349 67.7379 132.226 66.805 132.095L65.7333 131.948C65.6071 131.939 65.4827 131.913 65.3633 131.871C65.4884 131.851 65.6159 131.851 65.7411 131.871L66.8204 131.941C67.7533 132.018 69.1333 132.095 70.7755 132.141C72.4177 132.187 74.4454 132.141 76.6504 132.064C78.8553 131.987 81.2762 131.709 83.7973 131.293C86.3184 130.877 88.693 130.376 90.8363 129.836C92.9796 129.296 94.8762 128.687 96.449 128.124C98.0218 127.562 99.3016 127.091 100.165 126.737L101.167 126.343C101.29 126.3 101.416 126.269 101.545 126.251V126.251Z" fill="#FAFAFA"/>
<path d="M33.9228 290.153L29.7518 308.988L22.1423 322.934C21.8807 323.416 21.8301 323.984 22.0025 324.504C22.1748 325.024 22.5548 325.449 23.052 325.679C23.6316 325.945 24.3041 325.913 24.8561 325.594C28.3872 323.559 41.3473 315.98 41.5709 314.585C41.8407 312.973 47.2915 295.01 47.2915 295.01L33.9228 290.153Z" fill="#3ED0A3"/>
<g opacity="0.6">
<path d="M23.0522 325.679L41.8872 313.344L41.6867 314.114C41.5219 314.802 41.1174 315.409 40.5457 315.826C39.0037 316.929 34.7094 319.889 24.918 325.61C24.347 325.944 23.6465 325.97 23.0522 325.679H23.0522Z" fill="white"/>
</g>
<g opacity="0.6">
<path d="M39.5201 306.335C38.9567 306.57 38.6609 307.192 38.8339 307.777C39.0476 308.348 39.6704 308.653 40.2525 308.471C40.8561 308.221 41.1702 307.553 40.9772 306.929C40.6937 306.362 40.0172 306.115 39.4352 306.366" fill="white"/>
</g>
<path d="M29.3431 318.54C29.0321 317.846 28.5956 317.216 28.0556 316.682C27.4336 316.248 26.7351 315.937 25.9971 315.764C25.9971 315.71 26.2669 315.626 26.7218 315.672C27.3137 315.748 27.8708 315.994 28.3254 316.381C28.7836 316.753 29.1215 317.252 29.2968 317.815C29.4279 318.255 29.3894 318.54 29.3431 318.54Z" fill="#263238"/>
<path d="M27.3929 320.722C27.2849 320.783 26.8301 320.028 25.928 319.511C25.3526 319.244 24.7603 319.015 24.1548 318.825C24.83 318.604 25.5705 318.721 26.1439 319.141C27.1693 319.735 27.5008 320.698 27.3929 320.722Z" fill="#263238"/>
<path d="M32.612 315.934C31.9564 315.206 31.2449 314.531 30.4841 313.914C29.6459 313.403 28.7695 312.957 27.8628 312.58C28.9055 312.559 29.9219 312.909 30.7308 313.567C31.6227 314.104 32.2907 314.944 32.612 315.934Z" fill="#263238"/>
<path d="M34.3623 310.313C34.2852 310.414 33.3523 309.728 32.0493 309.35C30.7464 308.972 29.5668 309.034 29.5591 308.903C31.3072 308.45 33.1629 308.991 34.3931 310.313H34.3623Z" fill="#263238"/>
<path d="M35.7266 304.816C34.9746 304.351 34.1627 303.991 33.3135 303.745C32.4386 303.626 31.5516 303.626 30.6768 303.745C30.6768 303.699 30.9158 303.514 31.4092 303.367C32.7244 303.01 34.131 303.296 35.2024 304.138C35.5956 304.508 35.7575 304.786 35.7266 304.816Z" fill="#263238"/>
<path d="M33.599 302.704C33.5996 302.459 33.6521 302.217 33.7532 301.995C33.9717 301.358 34.318 300.773 34.7709 300.275C35.0672 299.881 35.4841 299.594 35.9582 299.458C36.2885 299.404 36.6184 299.557 36.7909 299.844C36.9326 300.131 36.9628 300.461 36.8757 300.769C36.468 302.044 35.2141 302.852 33.8843 302.696C32.5841 302.511 31.5228 301.562 31.1936 300.291C31.1187 299.971 31.1832 299.635 31.3709 299.366C31.5895 299.11 31.9482 299.026 32.2575 299.157C32.6933 299.375 33.0652 299.702 33.3369 300.106C33.7455 300.641 34.0561 301.244 34.2543 301.887C34.3483 302.116 34.3929 302.363 34.3854 302.611C34.0746 301.78 33.6406 301.001 33.0979 300.299C32.8452 299.969 32.5174 299.705 32.1419 299.528C31.9723 299.454 31.7744 299.501 31.6562 299.643C31.5472 299.827 31.5193 300.047 31.5791 300.252C31.9073 301.32 32.8183 302.105 33.9228 302.272C35.0457 302.403 36.1101 301.741 36.4902 300.676C36.5649 300.467 36.5649 300.238 36.4902 300.029C36.4005 299.867 36.2175 299.78 36.0353 299.813C35.6335 299.923 35.2754 300.155 35.0099 300.476C34.4185 301.135 33.9416 301.888 33.599 302.704Z" fill="#263238"/>
<g opacity="0.3">
<path d="M33.4138 292.196L32.5117 296.513L46.1503 298.78L47.2913 295.01L33.8995 290.153L33.4138 292.196Z" fill="black"/>
</g>
<path d="M94.8299 297.122L93.7043 312.172C93.7043 312.172 108.63 318.339 108.692 321.177L79.395 320.043L80.166 296.513L94.8299 297.122Z" fill="#3ED0A3"/>
<g opacity="0.6">
<path d="M84.7224 310.553C84.1339 310.71 83.7564 311.283 83.8435 311.886C83.9782 312.481 84.5518 312.869 85.1542 312.773C85.7805 312.607 86.18 311.994 86.0794 311.354C85.877 310.746 85.2306 310.406 84.6145 310.583" fill="white"/>
</g>
<g opacity="0.6">
<path d="M79.4102 320.043L79.5798 317.669L107.605 319.619C107.605 319.619 108.892 320.236 108.707 321.161L79.4102 320.043Z" fill="white"/>
</g>
<path d="M94.1977 312.041C94.1977 312.187 93.473 312.226 92.756 312.657C92.039 313.089 91.6381 313.675 91.507 313.613C91.3759 313.552 91.6226 312.734 92.5016 312.226C93.3805 311.717 94.2363 311.909 94.1977 312.041Z" fill="#263238"/>
<path d="M97.22 313.451C97.22 313.598 96.6186 313.814 96.1098 314.4C95.6009 314.986 95.439 315.618 95.2925 315.61C95.1461 315.602 95.0921 314.785 95.7397 314.068C96.3873 313.351 97.22 313.297 97.22 313.451Z" fill="#263238"/>
<path d="M98.8232 317.175C98.6922 317.175 98.5226 316.474 98.9158 315.71C99.309 314.947 99.9951 314.654 100.049 314.777C100.103 314.901 99.679 315.302 99.3629 315.934C99.0468 316.566 98.962 317.168 98.8232 317.175Z" fill="#263238"/>
<path d="M94.059 308.586C93.9973 308.71 93.3497 308.486 92.517 308.509C91.6844 308.532 91.0676 308.764 90.9751 308.64C90.8826 308.517 91.5302 308.031 92.517 308.016C93.5039 308 94.1515 308.478 94.059 308.586Z" fill="#263238"/>
<g opacity="0.3">
<path d="M94.6216 300.106L94.4212 302.789L80.0425 302.095L80.1427 298.996L94.6216 300.106Z" fill="black"/>
</g>
<path d="M94.2516 305.541C93.7671 305.658 93.2596 305.637 92.7867 305.479C92.2522 305.368 91.734 305.19 91.2447 304.947C90.9593 304.807 90.6837 304.647 90.4198 304.469C90.2588 304.371 90.1134 304.248 89.9881 304.107C89.8132 303.88 89.8132 303.563 89.9881 303.336C90.1401 303.138 90.3786 303.026 90.628 303.035C90.8136 303.043 90.9976 303.074 91.1754 303.128C91.4839 303.218 91.7833 303.337 92.0697 303.483C92.5566 303.72 93.0018 304.036 93.3881 304.415C94.0434 305.071 94.2516 305.618 94.2053 305.641C94.159 305.664 93.8275 305.225 93.1568 304.678C92.763 304.37 92.3332 304.111 91.8769 303.907C91.6049 303.794 91.327 303.696 91.0443 303.614C90.7359 303.521 90.4738 303.513 90.389 303.614C90.3042 303.714 90.389 303.691 90.389 303.783C90.4814 303.885 90.5879 303.973 90.7051 304.045C90.9524 304.218 91.2098 304.375 91.476 304.516C91.9206 304.761 92.388 304.962 92.8715 305.117C93.341 305.225 93.8022 305.367 94.2516 305.541Z" fill="#263238"/>
<path d="M94.0587 305.742C93.8025 305.309 93.6867 304.808 93.7271 304.308C93.7302 303.765 93.8186 303.227 93.9893 302.712C94.0999 302.41 94.2367 302.118 94.3979 301.84C94.5741 301.453 94.939 301.184 95.3616 301.131C95.6304 301.148 95.8648 301.32 95.963 301.571C96.0299 301.744 96.0715 301.925 96.0863 302.11C96.137 302.437 96.137 302.77 96.0863 303.097C95.9832 303.642 95.7476 304.153 95.4002 304.585C94.7988 305.356 94.1974 305.472 94.182 305.425C94.1666 305.379 94.6446 305.094 95.1149 304.377C95.3848 303.968 95.5611 303.505 95.6314 303.02C95.6705 302.739 95.6705 302.453 95.6314 302.172C95.5929 301.864 95.485 301.601 95.3693 301.632C95.2537 301.663 94.9684 301.848 94.8373 302.095C94.6868 302.341 94.5554 302.599 94.4441 302.866C94.2657 303.331 94.1516 303.819 94.1049 304.315C94.0047 305.179 94.1358 305.742 94.0587 305.742Z" fill="#263238"/>
<path d="M64.5458 134.817C64.5458 134.817 59.9199 135.025 56.836 150.845C53.7521 166.666 30.2451 294.856 30.2451 294.856L47.2914 295.01L79.4102 173.134L77.2746 298.803L94.5907 300.129C94.5907 300.129 107.582 161.13 107.697 153.042C107.851 142.958 102.061 132.758 102.061 132.758L64.5458 134.817Z" fill="#263238"/>
<path d="M87.9757 133.467C88.0836 133.467 86.3104 142.526 84.0206 153.651C81.7308 164.777 79.7879 173.782 79.68 173.758C79.5721 173.735 81.3376 164.7 83.6274 153.574C85.9172 142.449 87.8909 133.444 87.9757 133.467Z" fill="#455A64"/>
<path d="M90.6281 135.726C90.6281 135.68 91.0907 135.541 91.6227 136.011C91.9284 136.289 92.0975 136.686 92.0852 137.099C92.0458 137.625 91.7066 138.081 91.214 138.27C90.7338 138.488 90.1712 138.414 89.7646 138.078C89.463 137.795 89.2974 137.396 89.3097 136.983C89.3097 136.274 89.7877 136.027 89.7954 136.073C89.6654 136.356 89.5971 136.664 89.595 136.975C89.6159 137.291 89.7631 137.586 90.0036 137.792C90.3127 138.005 90.709 138.047 91.0553 137.902C91.4016 137.756 91.6502 137.445 91.7152 137.075C91.7381 136.76 91.6324 136.448 91.4222 136.212C91.0444 135.772 90.6204 135.788 90.6281 135.726Z" fill="#455A64"/>
<path d="M89.8955 141.987C89.8955 141.94 90.3735 141.987 90.6665 142.626C90.8172 142.996 90.7975 143.414 90.6125 143.767C90.3423 144.191 89.8602 144.431 89.3595 144.39C88.8588 144.35 88.4213 144.036 88.2225 143.575C88.0978 143.199 88.1457 142.787 88.3535 142.449C88.7159 141.871 89.2093 141.886 89.1939 141.933C89.1785 141.979 88.8238 142.087 88.6002 142.58C88.4871 142.857 88.4871 143.167 88.6002 143.444C88.7639 143.755 89.0753 143.96 89.4255 143.988C89.7758 144.016 90.1161 143.863 90.3272 143.582C90.4725 143.319 90.5084 143.009 90.4275 142.719C90.2039 142.195 89.8569 142.04 89.8955 141.987Z" fill="#455A64"/>
<path d="M73.5588 135.88C73.5271 136.145 73.4597 136.405 73.3583 136.651C73.1175 137.357 72.8157 138.041 72.4563 138.695C70.0669 143.125 65.6123 146.059 60.5987 146.505C59.8574 146.569 59.1119 146.569 58.3706 146.505C58.1094 146.496 57.8503 146.455 57.5996 146.381C57.5996 146.304 58.7638 146.435 60.6064 146.204C65.4749 145.613 69.7846 142.773 72.2481 138.533C73.1502 136.975 73.4894 135.857 73.5588 135.88Z" fill="#455A64"/>
<path d="M106.726 147.129C106.726 147.129 106.526 147.036 106.21 146.82C105.768 146.503 105.355 146.147 104.976 145.757C102.413 143.162 101.047 139.617 101.206 135.973C101.224 135.43 101.293 134.891 101.414 134.362C101.499 133.984 101.553 133.783 101.584 133.791C101.615 133.799 101.491 134.631 101.491 135.981C101.492 139.522 102.808 142.937 105.184 145.564C106.086 146.558 106.765 147.067 106.726 147.129Z" fill="#455A64"/>
<path d="M166.53 147.576C166.785 146.959 166.715 147.206 162.629 144.492C162.629 144.492 168.489 148.347 167.879 146.512C167.353 145.817 166.708 145.22 165.975 144.747C167.517 145.656 168.411 145.757 168.681 145.387C169.144 144.747 165.79 142.303 164.194 141.2C165.653 142.244 167.183 143.184 168.774 144.014C169.722 144.307 169.267 143.197 168.627 142.387C167.987 141.578 163.022 136.798 161.689 135.372C161.432 135.152 161.284 134.831 161.284 134.493C161.284 134.155 161.432 133.833 161.689 133.614C164.079 132.072 165.127 129.612 165.096 128.803C165.042 128.429 164.753 128.133 164.38 128.069C164.007 128.006 163.637 128.19 163.462 128.525C162.858 129.275 162.155 129.939 161.372 130.499C160.765 130.973 160.082 131.34 159.353 131.586C158.504 131.864 154.333 131.632 153.439 131.177L150.594 140.822C150.594 140.822 160.918 145.649 162.876 146.589C165.281 147.73 166.353 148.046 166.53 147.576Z" fill="#FFBE9D"/>
<path d="M160.771 143.066C160.687 143.181 162.028 144.161 163.763 145.263C165.497 146.366 166.955 147.16 167.024 147.044C167.093 146.928 165.752 145.942 164.025 144.847C162.298 143.752 160.848 142.919 160.771 143.066Z" fill="#EB996E"/>
<path d="M161.743 141.177C161.666 141.293 163.038 142.418 164.827 143.698C166.615 144.978 168.096 145.926 168.173 145.818C168.25 145.71 166.885 144.577 165.089 143.297C163.293 142.017 161.828 141.069 161.743 141.177Z" fill="#EB996E"/>
<path d="M162.768 139.265C162.691 139.373 163.971 140.468 165.628 141.701C167.286 142.935 168.712 143.845 168.774 143.737C168.836 143.629 167.579 142.534 165.921 141.3C164.264 140.067 162.853 139.157 162.768 139.265Z" fill="#EB996E"/>
<path d="M57.7688 104.332L65.3398 104.748C65.8761 106.862 66.5932 108.925 67.4831 110.916C73.5815 100.338 78.2768 86.1602 79.4795 80.4626C79.3099 79.9024 79.1017 79.2702 78.855 78.5661C78.6703 77.5016 78.7017 76.4108 78.9475 75.3588C79.1557 74.0944 79.5103 72.3828 79.6106 71.5964C79.9421 69.191 80.3276 68.8055 81.1525 69.0831C82.2936 69.4531 80.6822 75.8445 81.6151 75.9833C82.1239 76.0527 82.733 73.8631 82.918 72.0667C83.1031 70.2704 83.9049 64.7502 84.4985 64.357C85.3697 63.8173 86.1253 64.6731 85.9094 66.4617C85.6936 68.2504 85.4083 73.6704 86.3566 73.7397C87.3049 73.8091 88.0759 64.65 88.0759 64.65C88.0759 64.65 87.9294 62.6608 89.0242 62.7071C91.0056 62.7919 89.4636 72.4522 89.294 73.3697C89.1706 74.0019 90.2038 74.1407 90.2963 73.4314C90.3888 72.7221 90.8668 64.2645 92.879 64.3339C94.421 64.3878 91.684 72.2903 92.5552 74.1252C93.4264 75.9602 94.0278 67.9035 95.5081 68.0114C96.0555 68.0577 96.4641 68.1656 95.4541 72.7221C94.4684 76.3453 93.2871 79.9124 91.9153 83.4078C89.6024 96.0518 79.279 136.497 63.1502 129.096C54.1298 124.956 49.9126 104.425 49.9126 104.425L57.7688 104.332Z" fill="#FFBE9D"/>
<path d="M91.9311 83.4772C91.9444 83.3816 91.9703 83.2883 92.0082 83.1996C92.0776 82.9992 92.1624 82.737 92.278 82.4287C92.5324 81.6962 92.8794 80.6785 93.3343 79.3448C93.7891 78.011 94.3365 76.3919 94.8762 74.4799C95.1538 73.5316 95.3851 72.4985 95.5932 71.396C95.7012 70.8409 95.8014 70.2704 95.8708 69.6844C95.89 69.3944 95.89 69.1033 95.8708 68.8132C95.8708 68.5126 95.8014 68.2658 95.5624 68.2581C95.3234 68.2504 95.1538 68.3969 94.9841 68.6513C94.8306 68.9236 94.7041 69.2102 94.6064 69.5071C94.3905 70.1162 94.2209 70.7638 94.0513 71.4191C93.8817 72.0745 93.7275 72.7606 93.527 73.4545C93.4396 73.8346 93.2828 74.1953 93.0644 74.5184C93.0095 74.5817 92.9371 74.6274 92.8563 74.6495C92.7531 74.6722 92.6453 74.6466 92.5633 74.5801C92.4747 74.4989 92.4015 74.4022 92.3474 74.2949C92.266 74.1055 92.2115 73.9057 92.1855 73.7012C92.1504 72.1462 92.3057 70.5927 92.6481 69.0754C92.7792 68.3044 92.9179 67.5334 93.0182 66.7624C93.0644 66.3692 93.1107 65.9915 93.1184 65.5751C93.1261 65.1588 93.0644 64.7194 92.9025 64.65C92.7406 64.5806 92.3474 64.7965 92.1315 65.1203C91.9184 65.4623 91.75 65.8302 91.6304 66.215C91.3675 67.0204 91.169 67.8454 91.0368 68.6822C90.8903 69.5302 90.7746 70.3937 90.6744 71.2726C90.6358 71.7121 90.5896 72.1516 90.551 72.5987L90.4894 73.2695C90.506 73.5595 90.393 73.8419 90.181 74.0404C89.91 74.2384 89.5422 74.2384 89.2712 74.0404C89.12 73.9405 89.0189 73.7805 88.9937 73.601C88.982 73.5192 88.982 73.4361 88.9937 73.3543V73.1924L89.2018 71.8432C89.3329 70.9334 89.4408 70.0237 89.5256 69.0985C89.6105 68.1733 89.6798 67.2404 89.6953 66.3076C89.7404 65.3839 89.6469 64.4588 89.4177 63.5629C89.3645 63.3355 89.2267 63.137 89.0322 63.0078C88.8415 62.9465 88.633 63.015 88.5157 63.1774C88.266 63.6338 88.1637 64.1562 88.2227 64.6731C88.0531 66.4849 87.8603 68.2658 87.5982 70.016C87.4671 70.8872 87.3207 71.7584 87.1048 72.6141C87.0431 72.8223 86.9814 73.0382 86.9043 73.254C86.831 73.5157 86.6773 73.7476 86.4649 73.9171C86.2714 74.0121 86.038 73.9609 85.9021 73.7937C85.8079 73.6949 85.7368 73.5764 85.6939 73.4468C85.6107 73.2329 85.5513 73.0106 85.5166 72.7838C85.3359 71.106 85.3204 69.4146 85.4703 67.7339C85.5842 66.9504 85.6281 66.1583 85.6014 65.367C85.5764 65.0292 85.4217 64.7142 85.1696 64.4881C85.05 64.4137 84.9052 64.3914 84.7687 64.4264C84.6966 64.4507 84.6269 64.4817 84.5606 64.5189C84.4912 64.5806 84.4989 64.5189 84.4526 64.65C84.1738 65.3433 83.9696 66.0644 83.8436 66.801C83.6894 67.572 83.5583 68.2735 83.4426 68.9983C83.327 69.723 83.2191 70.4323 83.1266 71.1416C83.034 71.8509 82.9878 72.5448 82.849 73.2386C82.7292 73.9165 82.5486 74.5823 82.3093 75.2277C82.2458 75.392 82.1711 75.5517 82.0857 75.7057C81.9778 75.8522 81.9161 76.0373 81.6231 76.1298C81.4698 76.1579 81.3147 76.091 81.23 75.9602C81.176 75.8712 81.1345 75.7752 81.1066 75.6749C81.072 75.5073 81.0513 75.3371 81.0449 75.1661C81.0449 73.8477 81.2222 72.645 81.2916 71.4808C81.3419 70.9243 81.3419 70.3643 81.2916 69.8078C81.2916 69.5611 81.176 69.2681 81.0372 69.2141C80.8402 69.1176 80.6097 69.1176 80.4127 69.2141C80.0891 69.5617 79.8887 70.0059 79.8422 70.4785C79.7266 70.9488 79.6803 71.4268 79.5955 71.8817C79.2717 73.7012 78.9324 75.274 78.7705 76.5538C78.6945 77.1166 78.6945 77.6871 78.7705 78.25C78.8785 78.7126 79.0404 79.1289 79.1252 79.4527C79.21 79.7765 79.2948 80.0078 79.3488 80.2237C79.3775 80.3063 79.3981 80.3915 79.4105 80.4781C79.3642 80.4034 79.328 80.3231 79.3025 80.2391L79.0404 79.4681C78.9324 79.1366 78.7705 78.7665 78.6395 78.2577C78.557 77.6798 78.557 77.0931 78.6395 76.5153C78.786 75.2123 79.0944 73.655 79.4105 71.8277C79.4953 71.3729 79.5415 70.8949 79.6417 70.4014C79.697 70.1408 79.7664 69.8834 79.8499 69.6305C79.927 69.35 80.0952 69.1032 80.3279 68.9289C80.6124 68.7781 80.9532 68.7781 81.2377 68.9289C81.5442 69.1221 81.7282 69.4609 81.7234 69.8232C81.7774 70.4028 81.7774 70.9861 81.7234 71.5656C81.6694 72.7375 81.4844 73.9633 81.5152 75.2123C81.5208 75.3601 81.5389 75.5071 81.5692 75.6518C81.5692 75.7983 81.6771 75.8599 81.6617 75.8291C81.6463 75.7983 81.8082 75.7057 81.8699 75.5824C81.9459 75.4456 82.0128 75.3039 82.0703 75.1584C82.2987 74.5334 82.4665 73.888 82.5714 73.2309C82.7025 72.5602 82.7488 71.8663 82.8413 71.1493C82.9338 70.4323 83.0263 69.723 83.142 68.9906C83.2576 68.2581 83.3887 67.5257 83.5352 66.7779C83.6605 65.9968 83.8779 65.2334 84.1828 64.5035C84.2444 64.3811 84.3376 64.2773 84.4526 64.2028C84.5551 64.1466 84.6638 64.1026 84.7764 64.0717C85.0381 63.997 85.3192 64.0391 85.5474 64.1874C85.909 64.4745 86.1352 64.8989 86.1719 65.3593C86.2298 65.7787 86.2298 66.2042 86.1719 66.6237C86.1334 67.0169 86.0948 67.3946 86.0717 67.8264C85.9214 69.4685 85.9369 71.1216 86.1179 72.7606C86.1509 72.9553 86.2026 73.1463 86.2721 73.3311C86.2953 73.4057 86.3348 73.4742 86.3878 73.5316C86.3878 73.5316 86.3878 73.5316 86.4263 73.5316C86.4263 73.7089 86.4263 73.5316 86.4263 73.601C86.4263 73.6704 86.4263 73.601 86.4263 73.5393C86.5225 73.4105 86.5979 73.2674 86.6499 73.1153C86.7219 72.9251 86.7835 72.7246 86.8349 72.5139C87.0431 71.6967 87.1819 70.8332 87.3129 69.9697C87.5751 68.235 87.7678 66.454 87.9297 64.65V64.6885C87.8612 64.053 87.999 63.4123 88.3229 62.8613C88.5764 62.5385 89.0065 62.4116 89.3946 62.5452C89.7213 62.7265 89.9605 63.0325 90.0576 63.3933C90.3045 64.3413 90.4059 65.3214 90.3583 66.2999C90.3583 67.2559 90.2735 68.1965 90.1887 69.1293C90.1039 70.0622 89.9882 70.9797 89.8572 71.8894C89.7878 72.352 89.7184 72.7992 89.649 73.254C89.5873 73.5393 89.6027 73.547 89.649 73.6318C89.7585 73.7057 89.9019 73.7057 90.0114 73.6318C90.1039 73.5624 90.1193 73.4314 90.1424 73.177L90.1964 72.5062L90.3352 71.1724C90.4277 70.2935 90.551 69.4146 90.6975 68.5588C90.8402 67.6992 91.0463 66.8514 91.3143 66.0223C91.4543 65.6032 91.6432 65.2021 91.8771 64.8273C92.0045 64.6252 92.1725 64.4519 92.3705 64.3184C92.5935 64.1571 92.881 64.1139 93.1415 64.2028C93.3809 64.3505 93.5377 64.6014 93.5656 64.8813C93.5974 65.0982 93.6103 65.3174 93.6041 65.5366C93.6041 65.9606 93.5501 66.3692 93.5039 66.7779C93.3959 67.5488 93.2495 68.3661 93.1107 69.1448C92.7795 70.6093 92.6191 72.1073 92.6327 73.6087C92.6544 73.7699 92.6958 73.9279 92.756 74.079C92.784 74.1337 92.8176 74.1854 92.8563 74.2332C92.8563 74.2332 92.8563 74.2332 92.8563 74.1792C93.0294 73.9005 93.1569 73.596 93.234 73.2772C93.4345 72.6064 93.5964 71.928 93.7737 71.2649C93.9327 70.6052 94.1257 69.9542 94.3519 69.3144C94.4587 68.9975 94.5983 68.6926 94.7683 68.4046C94.8602 68.2477 94.9805 68.1091 95.1229 67.996C95.2004 67.9288 95.293 67.8812 95.3928 67.8572C95.4924 67.8416 95.5938 67.8416 95.6934 67.8572C95.9077 67.8786 96.0935 68.0143 96.1792 68.2119C96.2435 68.3739 96.2775 68.5464 96.2794 68.7207C96.2854 69.0326 96.2673 69.3445 96.2254 69.6536C96.156 70.255 96.0404 70.8255 95.9324 71.3883C95.7089 72.4908 95.4622 73.5393 95.1615 74.4722C94.5832 76.3842 94.005 78.0033 93.5347 79.3216C93.0644 80.64 92.6635 81.6345 92.3937 82.3438C92.2626 82.6677 92.1547 82.9221 92.0776 83.1148C92.0431 83.2409 91.9939 83.3625 91.9311 83.4772Z" fill="#EB996E"/>
<path d="M49.8433 105.203C51.3081 110.377 54.1761 118.356 57.2523 126.791C57.4506 127.346 57.9645 127.728 58.5538 127.756C59.1432 127.785 59.6917 127.455 59.943 126.922L67.4832 110.97C67.4832 110.97 65.6637 97.8636 65.8179 98.3339C65.9721 98.8042 50.2596 100.03 50.2596 100.03L49.8433 105.203Z" fill="#3ED0A3"/>
<path d="M66.8357 102.636C66.8357 102.698 65.8951 102.975 64.4071 103.546C62.4625 104.284 60.589 105.197 58.8098 106.275C57.033 107.358 55.356 108.596 53.7985 109.976C52.6035 111.032 51.9173 111.757 51.8711 111.71C51.8248 111.664 52.0021 111.495 52.2951 111.148C52.7081 110.665 53.1456 110.205 53.6058 109.768C55.1255 108.304 56.8008 107.012 58.6017 105.913C60.4032 104.827 62.3158 103.938 64.3069 103.261C64.9088 103.053 65.5213 102.878 66.1418 102.736C66.3663 102.666 66.6005 102.632 66.8357 102.636Z" fill="#FAFAFA"/>
<path d="M69.8273 106.614C69.3374 106.12 68.9125 105.566 68.5629 104.964C67.6626 103.56 66.8886 102.079 66.25 100.539C65.611 98.9936 65.113 97.3937 64.762 95.7588C64.5824 95.09 64.4916 94.4005 64.4922 93.708C64.7221 94.3544 64.9051 95.0166 65.0396 95.6894C65.4526 97.2859 65.9677 98.8542 66.5815 100.385C67.2229 101.907 67.9593 103.388 68.7865 104.818C69.1715 105.394 69.5192 105.994 69.8273 106.614Z" fill="#263238"/>
<path d="M74.8538 35.9776C72.2049 40.3434 71.664 45.6704 73.3813 50.4796C74.1522 52.5998 75.3858 54.6891 75.1622 56.9404C74.9386 59.1916 73.1808 61.4197 73.7976 63.6402C74.1676 64.9585 75.2933 65.9531 75.7327 67.2329C76.2339 68.7748 75.7327 70.4016 75.4629 71.9821C74.8461 76.022 76.1413 80.0851 76.4574 84.1558C76.7735 88.2266 75.6865 92.9989 72.0475 94.7721C70.945 95.3118 69.5032 95.466 68.5858 94.6411C67.4139 93.6002 67.7377 91.7191 68.0615 90.1771C71.2534 74.7576 61.3926 59.7082 63.6438 44.1036C64.0062 41.6057 65.4017 37.3653 67.198 35.6229C68.9944 33.8805 73.9826 34.081 75.6788 35.9313" fill="#263238"/>
<path d="M59.6655 80.7095C59.6655 80.7095 60.1358 80.1544 60.8297 79.0597C61.8034 77.5135 62.4855 75.8019 62.8419 74.0098C63.0746 72.7753 63.1548 71.5169 63.0809 70.2628C62.9461 68.8047 62.892 67.3401 62.919 65.876C62.965 65.0742 63.1127 64.2814 63.3585 63.5168C63.6403 62.7291 63.9965 61.9701 64.4224 61.2501C65.2859 59.793 66.373 58.4361 67.3753 56.9866C68.4045 55.6168 69.1204 54.0377 69.4723 52.3608C69.6432 50.7813 69.5521 49.1845 69.2025 47.6347C68.9108 46.1944 68.7969 44.7237 68.8633 43.2556C68.955 41.9732 69.2142 40.7083 69.6342 39.4932C70.2232 37.73 71.1502 36.0985 72.3635 34.69C72.6857 34.3071 73.0362 33.9489 73.412 33.6184C73.5311 33.4914 73.6659 33.38 73.8129 33.2869C73.8129 33.2869 73.2964 33.788 72.4791 34.8288C70.5327 37.2449 69.3946 40.2115 69.2256 43.3095C69.174 44.7536 69.3009 46.1986 69.6034 47.6116C69.9712 49.203 70.0702 50.8447 69.8964 52.4687C69.5309 54.1924 68.7942 55.8156 67.7376 57.2256C66.7277 58.6982 65.6406 60.0474 64.7925 61.466C64.3754 62.1593 64.0293 62.8928 63.7594 63.6556C63.5155 64.3889 63.3678 65.1509 63.3199 65.9222C63.2858 67.3703 63.327 68.8191 63.4433 70.2628C63.5045 71.5422 63.4061 72.8242 63.1503 74.0792C62.764 75.8957 62.031 77.6208 60.9916 79.1599C60.7102 79.5759 60.4011 79.9726 60.0664 80.3472C59.9465 80.4823 59.812 80.6038 59.6655 80.7095H59.6655Z" fill="#455A64"/>
<path d="M52.3569 81.8583C52.419 81.6785 52.4991 81.5054 52.5959 81.3417C52.7887 80.9794 53.0354 80.5014 53.3669 79.9C54.0145 78.6433 54.9782 76.8161 55.9265 74.5032C57.0865 71.8018 57.7298 68.9069 57.8231 65.9685C57.8236 65.1219 57.7591 64.2764 57.6304 63.4397C57.4993 62.5762 57.2989 61.705 57.1678 60.7952C57.0075 59.8542 57.0284 58.8912 57.2295 57.958C57.4902 57 58.0263 56.1395 58.7714 55.4832C60.2209 54.1648 61.971 53.3014 62.8807 51.7517C63.6689 50.2151 64.1334 48.5331 64.2454 46.8097C64.4085 45.2299 64.7659 43.6763 65.3093 42.1839C66.5314 38.9801 68.7088 36.2294 71.5465 34.3045C71.9989 34 72.4701 33.7245 72.9574 33.4796C73.1219 33.3811 73.298 33.3034 73.4816 33.2483C73.4816 33.2483 72.7878 33.6184 71.639 34.4356C70.0199 35.591 68.6182 37.024 67.4989 38.6682C66.7226 39.7954 66.0906 41.0153 65.6177 42.2995C65.0982 43.7954 64.7616 45.3486 64.6154 46.9254C64.3841 48.5676 64.1991 50.4025 63.2123 52.0292C62.2254 53.656 60.4213 54.5812 59.0413 55.8841C58.338 56.4944 57.831 57.2992 57.5841 58.197C57.3967 59.0799 57.3784 59.9903 57.5302 60.88C57.6535 61.7667 57.8463 62.6456 57.9773 63.5168C58.1107 64.3736 58.1726 65.2401 58.1624 66.1072C58.0576 69.0995 57.3798 72.0439 56.1656 74.7807C55.3769 76.6303 54.481 78.4323 53.4826 80.1775L52.6653 81.388C52.5794 81.5552 52.4761 81.7128 52.3569 81.8583Z" fill="#455A64"/>
<path d="M307.442 299.713C307.478 299.6 307.524 299.492 307.581 299.389C307.689 299.157 307.835 298.849 308.012 298.456C308.549 297.252 308.98 296.003 309.3 294.724C310.148 291.409 310.449 286.344 309.192 280.33C308.509 277.051 307.616 273.819 306.517 270.654C305.391 267.224 304.073 263.585 303.001 259.645C301.791 255.536 301.206 251.268 301.266 246.986C301.428 242.506 302.754 238.042 304.212 233.586C305.669 229.13 307.172 224.789 307.619 220.395C308.116 216.18 307.269 211.917 305.198 208.213C303.271 204.659 300.842 201.614 299.031 198.468C297.334 195.545 296.084 192.385 295.322 189.093C294.228 184.326 294.147 179.383 295.083 174.583C295.424 172.827 295.941 171.109 296.625 169.456C296.604 169.572 296.573 169.685 296.533 169.796L296.224 170.775C295.962 171.638 295.615 172.933 295.284 174.63C294.422 179.408 294.55 184.312 295.661 189.039C296.435 192.291 297.69 195.41 299.385 198.291C301.197 201.375 303.633 204.459 305.607 208.028C307.728 211.807 308.6 216.16 308.097 220.464C307.642 224.92 306.131 229.307 304.674 233.756C303.217 238.204 301.906 242.622 301.744 247.024C301.675 251.264 302.247 255.491 303.441 259.56C304.497 263.477 305.792 267.116 306.91 270.562C307.999 273.743 308.874 276.994 309.531 280.292C310.757 286.352 310.41 291.471 309.531 294.794C309.187 296.075 308.725 297.322 308.151 298.518L307.673 299.435C307.607 299.536 307.529 299.629 307.442 299.713Z" fill="#263238"/>
<path d="M301.498 201.575C301.498 201.575 297.812 189.772 304.427 182.864C304.532 182.75 304.692 182.706 304.84 182.748C304.988 182.79 305.1 182.913 305.129 183.064C305.484 185.015 305.923 190.951 301.498 201.575Z" fill="#3ED0A3"/>
<path d="M303.71 186.795C303.699 187.526 303.616 188.255 303.464 188.97C303.217 190.473 302.932 192.231 302.623 194.174C302.315 196.116 302.03 197.882 301.791 199.378C301.723 200.107 301.594 200.829 301.405 201.536C301.333 200.807 301.348 200.072 301.451 199.347C301.575 197.998 301.814 196.147 302.145 194.112C302.477 192.077 302.839 190.257 303.124 188.923C303.237 188.194 303.433 187.48 303.71 186.795Z" fill="#263238"/>
<path d="M305.831 229.415C305.831 229.415 308.09 217.257 317.172 214.25C317.318 214.199 317.48 214.235 317.591 214.342C317.702 214.45 317.742 214.611 317.696 214.759C317.095 216.632 314.712 222.083 305.831 229.415Z" fill="#3ED0A3"/>
<path d="M314.697 217.372C314.345 218.014 313.932 218.621 313.463 219.184L310.279 223.386L307.118 227.603C306.72 228.215 306.269 228.79 305.769 229.322C306.051 228.644 306.413 228.002 306.848 227.41C307.619 226.277 308.668 224.751 309.932 223.108C311.197 221.466 312.345 220.024 313.217 218.976C313.65 218.389 314.146 217.851 314.697 217.372V217.372Z" fill="#263238"/>
<path d="M303.379 259.892C303.379 259.892 302.006 247.602 309.824 242.09C309.947 241.994 310.115 241.978 310.254 242.049C310.393 242.12 310.478 242.265 310.472 242.421C310.449 244.403 309.747 250.308 303.379 259.892Z" fill="#3ED0A3"/>
<path d="M308.39 245.806C308.247 246.524 308.027 247.224 307.735 247.895L305.915 252.845C305.237 254.695 304.628 256.368 304.111 257.795C303.914 258.497 303.656 259.18 303.34 259.838C303.412 259.106 303.572 258.387 303.818 257.694C304.196 256.399 304.782 254.61 305.499 252.683C306.216 250.756 306.918 249.021 307.45 247.78C307.695 247.091 308.01 246.43 308.39 245.806Z" fill="#263238"/>
<path d="M310.218 290.561C310.218 290.561 309.293 278.226 317.295 272.998C317.423 272.91 317.589 272.902 317.725 272.977C317.861 273.053 317.942 273.198 317.935 273.353C317.843 275.334 316.933 281.217 310.218 290.561Z" fill="#3ED0A3"/>
<path d="M315.707 276.668C315.534 277.38 315.289 278.072 314.975 278.734C314.404 280.137 313.726 281.818 312.978 283.614C312.23 285.411 311.575 287.084 311.004 288.495C310.776 289.191 310.484 289.864 310.133 290.507C310.235 289.778 310.424 289.063 310.696 288.379C311.12 287.099 311.767 285.341 312.554 283.437C313.34 281.533 314.096 279.821 314.674 278.603C314.948 277.923 315.295 277.274 315.707 276.668Z" fill="#263238"/>
<path d="M296.193 191.206C296.193 191.206 285.261 185.469 285.022 175.917C285.021 175.765 285.103 175.623 285.236 175.549C285.37 175.476 285.533 175.481 285.662 175.562C287.289 176.688 291.807 180.574 296.193 191.206Z" fill="#3ED0A3"/>
<path d="M287.296 179.201C287.81 179.726 288.267 180.302 288.661 180.921C289.555 182.147 290.596 183.596 291.745 185.192L294.829 189.448C295.299 190.007 295.717 190.609 296.078 191.244C295.514 190.775 295.009 190.239 294.574 189.648C293.703 188.615 292.562 187.135 291.359 185.462C290.157 183.789 289.1 182.239 288.376 181.106C287.951 180.51 287.589 179.872 287.296 179.201V179.201Z" fill="#263238"/>
<path d="M307.966 216.548C307.966 216.548 296.679 211.498 295.885 201.961C295.872 201.808 295.945 201.661 296.075 201.579C296.205 201.498 296.37 201.497 296.502 201.575C298.19 202.601 302.931 206.193 307.966 216.548Z" fill="#3ED0A3"/>
<path d="M298.368 205.106C298.912 205.596 299.402 206.141 299.833 206.733L303.179 210.811L306.532 214.874C307.035 215.406 307.489 215.982 307.889 216.594C307.298 216.157 306.759 215.653 306.286 215.09C305.36 214.103 304.127 212.7 302.824 211.104C301.521 209.508 300.38 208.02 299.578 206.933C299.108 206.371 298.702 205.758 298.368 205.106H298.368Z" fill="#263238"/>
<path d="M301.451 244.835C301.451 244.835 293.742 235.197 297.342 226.331C297.4 226.189 297.533 226.092 297.686 226.079C297.838 226.066 297.986 226.139 298.067 226.27C299.138 227.943 301.706 233.309 301.451 244.835Z" fill="#3ED0A3"/>
<path d="M298.121 230.248C298.384 230.933 298.576 231.643 298.691 232.368C299.015 233.848 299.393 235.591 299.809 237.518C300.225 239.446 300.619 241.18 300.942 242.661C301.149 243.363 301.291 244.083 301.367 244.812C301.028 244.156 300.769 243.462 300.596 242.745C300.218 241.442 299.755 239.661 299.323 237.611C298.892 235.56 298.552 233.756 298.337 232.43C298.185 231.712 298.113 230.981 298.121 230.248Z" fill="#263238"/>
<path d="M309.161 278.071C309.161 278.071 297.959 272.836 297.327 263.292C297.311 263.136 297.386 262.986 297.519 262.904C297.651 262.822 297.819 262.823 297.951 262.906C299.609 263.962 304.289 267.64 309.161 278.071Z" fill="#3ED0A3"/>
<path d="M299.732 266.468C300.262 266.974 300.742 267.529 301.166 268.126L304.443 272.25L307.727 276.375C308.221 276.915 308.665 277.498 309.054 278.117C308.479 277.667 307.962 277.15 307.512 276.576C306.594 275.573 305.391 274.147 304.112 272.528C302.832 270.909 301.722 269.405 300.935 268.303C300.464 267.74 300.061 267.124 299.732 266.468Z" fill="#263238"/>
<path d="M331.45 229.469C331.45 229.469 331.45 229.562 331.45 229.739C331.45 229.916 331.45 230.209 331.45 230.51C331.45 231.281 331.373 232.26 331.319 233.509C331.18 236.146 330.972 239.823 330.733 244.218C329.962 248.689 327.649 253.647 324.565 258.465C322.322 262.012 319.939 265.235 317.935 268.234C316.105 270.866 314.462 273.622 313.016 276.483C312.059 278.416 311.284 280.435 310.703 282.512C310.51 283.245 310.356 283.823 310.271 284.216C310.235 284.421 310.181 284.622 310.109 284.817C310.112 284.609 310.138 284.403 310.186 284.201C310.24 283.8 310.356 283.214 310.533 282.466C311.052 280.352 311.789 278.298 312.731 276.337C314.164 273.453 315.805 270.678 317.642 268.033C319.662 265.011 321.998 261.781 324.234 258.257C327.279 253.462 329.546 248.581 330.401 244.179C330.71 239.792 330.964 236.123 331.172 233.486C331.273 232.237 331.357 231.242 331.419 230.494C331.419 230.186 331.473 229.924 331.496 229.723C331.47 229.641 331.455 229.555 331.45 229.469Z" fill="#263238"/>
<path d="M324.781 257.579C324.781 257.579 329.522 246.168 323.563 238.682C323.469 238.56 323.313 238.501 323.162 238.53C323.01 238.56 322.888 238.672 322.846 238.821C322.314 240.733 321.335 246.6 324.781 257.579Z" fill="#3ED0A3"/>
<path d="M323.918 242.668C324.122 243.372 324.249 244.095 324.295 244.827C324.465 246.168 324.65 248.026 324.796 250.085C324.943 252.143 325.012 254.009 325.012 255.366C325.059 256.098 325.015 256.834 324.881 257.555C324.748 256.836 324.684 256.105 324.688 255.374C324.588 253.832 324.465 252.082 324.334 250.116C324.203 248.15 324.079 246.369 323.971 244.858C323.882 244.131 323.864 243.398 323.918 242.668V242.668Z" fill="#263238"/>
<g opacity="0.3">
<path d="M324.781 257.579C324.781 257.579 329.522 246.168 323.563 238.682C323.469 238.56 323.313 238.501 323.162 238.53C323.01 238.56 322.888 238.672 322.846 238.821C322.314 240.733 321.335 246.6 324.781 257.579Z" fill="black"/>
</g>
<path d="M310.094 285.095C310.094 285.095 313.895 273.33 307.342 266.36C307.238 266.247 307.08 266.201 306.932 266.242C306.784 266.283 306.672 266.403 306.64 266.553C306.27 268.496 305.769 274.432 310.094 285.095Z" fill="#3ED0A3"/>
<path d="M308.02 270.277C308.287 270.962 308.473 271.676 308.575 272.405C308.853 273.723 309.184 275.566 309.5 277.601C309.816 279.636 310.032 281.494 310.148 282.844C310.248 283.572 310.261 284.309 310.186 285.041C310.003 284.333 309.88 283.611 309.816 282.882C309.593 281.379 309.331 279.621 309.045 277.67C308.76 275.72 308.483 273.962 308.274 272.458C308.118 271.741 308.033 271.01 308.02 270.277L308.02 270.277Z" fill="#263238"/>
<g opacity="0.3">
<path d="M310.094 285.095C310.094 285.095 313.895 273.33 307.342 266.36C307.238 266.247 307.08 266.201 306.932 266.242C306.784 266.283 306.672 266.403 306.64 266.553C306.27 268.496 305.769 274.432 310.094 285.095Z" fill="black"/>
</g>
<path d="M330.826 243.632C330.826 243.632 340.949 236.539 339.931 227.025C339.915 226.873 339.815 226.742 339.672 226.687C339.529 226.631 339.367 226.661 339.252 226.763C337.78 228.089 333.832 232.499 330.826 243.632Z" fill="#3ED0A3"/>
<g opacity="0.3">
<path d="M330.826 243.632C330.826 243.632 340.949 236.539 339.931 227.025C339.915 226.873 339.815 226.742 339.672 226.687C339.529 226.631 339.367 226.661 339.252 226.763C337.78 228.089 333.832 232.499 330.826 243.632Z" fill="black"/>
</g>
<path d="M338.096 230.579C337.895 231.285 337.613 231.966 337.255 232.607C336.677 233.825 335.837 235.49 334.858 237.31C333.879 239.129 332.938 240.741 332.213 241.882C331.857 242.522 331.424 243.118 330.926 243.655C331.197 242.976 331.532 242.326 331.928 241.712C332.653 240.378 333.509 238.821 334.449 237.086L336.963 232.46C337.278 231.798 337.658 231.168 338.096 230.579V230.579Z" fill="#263238"/>
<path d="M314.18 273.43C314.18 273.43 326.392 271.526 329.661 262.536C329.715 262.393 329.685 262.232 329.583 262.118C329.481 262.005 329.323 261.958 329.176 261.996C327.271 262.567 321.751 264.764 314.18 273.43Z" fill="#3ED0A3"/>
<g opacity="0.3">
<path d="M314.18 273.43C314.18 273.43 326.392 271.526 329.661 262.536C329.715 262.393 329.685 262.232 329.583 262.118C329.481 262.005 329.323 261.958 329.176 261.996C327.271 262.567 321.751 264.764 314.18 273.43Z" fill="black"/>
</g>
<path d="M326.454 264.918C325.959 265.459 325.406 265.942 324.804 266.36C323.748 267.208 322.26 268.334 320.587 269.537C318.914 270.739 317.349 271.765 316.192 272.474C315.589 272.895 314.937 273.239 314.25 273.499C314.797 273.012 315.388 272.575 316.015 272.196L320.317 269.159L324.611 266.075C325.183 265.625 325.801 265.237 326.454 264.918V264.918Z" fill="#263238"/>
<path d="M302.523 295.912L298.961 319.889H321.166L318.29 295.912H302.523Z" fill="#455A64"/>
<path d="M319.184 303.336C319.184 303.467 315.175 303.567 310.233 303.567C305.291 303.567 301.274 303.467 301.274 303.336C304.254 303.108 307.244 303.031 310.233 303.105C313.218 303.031 316.206 303.108 319.184 303.336Z" fill="#263238"/>
<path d="M319.616 305.248C319.616 305.379 315.476 305.479 310.364 305.479C305.252 305.479 301.112 305.379 301.112 305.248C301.112 305.117 305.252 305.017 310.364 305.017C315.476 305.017 319.616 305.117 319.616 305.248Z" fill="#263238"/>
<path d="M233.274 63.3009C233.274 63.3009 233.066 63.3009 232.665 63.3009C232.08 63.2661 231.493 63.2661 230.907 63.3009C228.643 63.4334 226.418 63.955 224.331 64.8428C221.022 66.2297 218.143 68.4731 215.989 71.3421C214.661 73.1336 213.673 75.1536 213.075 77.3018C211.725 82.4189 212.454 87.8619 215.102 92.4437C215.824 93.7122 216.705 94.8833 217.724 95.9285C218.751 97.0359 219.948 97.9727 221.27 98.704C222.627 99.4673 224.163 99.8534 225.719 99.8219C227.323 99.8027 228.861 99.1807 230.028 98.0795C231.168 96.8858 231.786 95.2884 231.748 93.6387C231.736 91.9416 231.197 90.2901 230.206 88.9126C228.209 86.0986 224.971 84.2097 221.525 83.192C217.951 82.1883 214.177 82.1352 210.577 83.0378C208.739 83.5159 206.968 84.2203 205.303 85.1349C203.623 86.083 202.097 87.2815 200.778 88.6891C200.462 89.0514 200.099 89.3829 199.814 89.7838L198.943 90.9557C198.413 91.7815 197.939 92.6418 197.524 93.5308C196.699 95.3358 196.136 97.249 195.851 99.2129C195.291 103.136 195.825 107.138 197.393 110.777C198.892 114.334 201.502 117.309 204.833 119.258C206.448 120.181 208.251 120.727 210.106 120.854C211.926 120.956 213.735 120.522 215.311 119.605C216.874 118.741 218.109 117.386 218.826 115.75C219.502 114.138 219.549 112.33 218.957 110.685C218.348 109.098 217.351 107.688 216.058 106.583C214.804 105.5 213.358 104.66 211.795 104.109C208.746 103.147 205.484 103.091 202.404 103.947C199.523 104.728 196.876 106.202 194.695 108.241C192.708 110.144 191.195 112.486 190.277 115.08C188.671 119.579 188.745 124.508 190.485 128.957C191.842 132.279 194.027 135.198 196.83 137.438C198.596 138.854 200.563 140 202.667 140.838C203.391 141.108 203.954 141.308 204.34 141.416L204.91 141.601C204.91 141.601 204.71 141.563 204.324 141.455C203.755 141.302 203.193 141.119 202.643 140.907C200.512 140.106 198.52 138.977 196.738 137.561C193.887 135.323 191.659 132.389 190.269 129.042C188.498 124.55 188.408 119.571 190.015 115.018C190.935 112.385 192.464 110.008 194.479 108.079C196.691 105.999 199.377 104.491 202.304 103.685C205.449 102.807 208.78 102.861 211.895 103.839C213.504 104.4 214.993 105.261 216.282 106.375C217.626 107.516 218.66 108.977 219.289 110.623C219.923 112.342 219.895 114.235 219.212 115.935C218.451 117.636 217.161 119.045 215.534 119.952C213.901 120.904 212.025 121.359 210.137 121.263C208.236 121.13 206.391 120.566 204.74 119.613C201.333 117.637 198.658 114.61 197.115 110.986C195.514 107.279 194.964 103.203 195.527 99.2052C195.822 97.2016 196.398 95.2497 197.239 93.4074C197.662 92.4995 198.147 91.6212 198.688 90.7784L199.583 89.5834C199.868 89.1748 200.238 88.8124 200.562 88.4578C201.912 87.0235 203.472 85.8018 205.188 84.8342C206.891 83.9022 208.704 83.1873 210.584 82.7063C214.254 81.7868 218.099 81.8426 221.74 82.8682C225.256 83.9167 228.548 85.8365 230.622 88.7507C231.664 90.1857 232.231 91.9114 232.241 93.685C232.279 95.4304 231.621 97.1193 230.414 98.3802C229.18 99.5381 227.557 100.19 225.865 100.207C224.246 100.244 222.648 99.8419 221.239 99.0433C219.886 98.2966 218.662 97.3358 217.616 96.1984C216.584 95.1297 215.69 93.9356 214.956 92.6442C212.26 87.9773 211.528 82.4311 212.92 77.2247C213.538 75.0516 214.549 73.0106 215.904 71.2033C218.098 68.3125 221.026 66.0628 224.385 64.6886C226.489 63.818 228.732 63.3272 231.008 63.2392C231.598 63.2002 232.19 63.2002 232.781 63.2392L233.274 63.3009Z" fill="#263238"/>
<rect x="150.918" y="140.445" width="108.098" height="83.3732" fill="#3ED0A3"/>
<path d="M150.918 140.445L170.887 159.071H277.15L259.017 140.445H150.918Z" fill="#3ED0A3"/>
<path d="M150.918 140.445L259.048 140.252H259.133L259.194 140.306L277.142 158.74L277.328 158.933L277.659 159.272H277.181L170.918 159.187H170.871L150.918 140.445L170.964 158.948H170.879L277.142 158.871L277.004 159.21L276.811 159.017L258.87 140.583L259.009 140.645L150.918 140.445Z" fill="#263238"/>
<path opacity="0.5" d="M151.166 141.362L170.286 165.602H259.017V159.071H170.887L151.166 141.362Z" fill="black"/>
<path d="M237.7 223.633C237.592 223.633 237.499 209.131 237.499 191.252C237.499 173.373 237.592 158.871 237.7 158.871C237.807 158.871 237.908 173.365 237.908 191.252C237.908 209.138 237.815 223.633 237.7 223.633Z" fill="#263238"/>
<rect x="245.147" y="204.729" width="9.52925" height="10.7705" fill="#F5F5F5"/>
<path d="M150.919 140.445L128.73 159.071H150.919V140.445Z" fill="#3ED0A3"/>
<g opacity="0.4">
<path d="M150.919 140.445L128.73 159.071H150.919V140.445Z" fill="black"/>
</g>
<rect x="137.92" y="223.818" width="124.289" height="95.863" fill="#3ED0A3"/>
<rect opacity="0.3" x="137.92" y="223.818" width="124.289" height="95.863" fill="black"/>
<path d="M231.069 319.002C230.961 319.002 230.869 297.639 230.869 271.287C230.869 244.935 230.961 223.563 231.069 223.563C231.177 223.563 231.27 244.927 231.27 271.287C231.27 297.646 231.177 319.002 231.069 319.002Z" fill="#263238"/>
<rect x="242.141" y="297.862" width="9.52925" height="10.7705" fill="#F5F5F5"/>
<rect x="175.836" y="224.072" width="14.1166" height="20.454" fill="#263238"/>
<rect x="175.836" y="298.942" width="14.1166" height="20.454" fill="#263238"/>
<path d="M261.129 223.818H260.806H259.873L256.288 223.856L243.081 223.918L199.529 224.018L155.961 223.964L142.762 223.903L139.177 223.864H138.236H137.92H138.236H139.177L142.762 223.826L155.961 223.764L199.529 223.702L243.081 223.764L256.288 223.826L259.873 223.864H260.806L261.129 223.818Z" fill="#263238"/>
</svg>
