<svg width="340" height="340" viewBox="0 0 340 340" fill="none" xmlns="http://www.w3.org/2000/svg">
<path d="M161.622 56.9335C150.203 42.6985 124.313 34.8164 106.38 38.3196C94.0717 39.2156 82.0801 44.6185 72.3656 52.4198C57.9555 64.0206 49.0022 81.7789 46.5096 100.117C44.886 112.095 46.0986 125.043 53.1858 134.859C60.2729 144.674 74.3395 149.929 85.051 144.331C91.2691 141.083 95.4056 134.899 98.5247 128.64C101.644 122.382 104.096 115.679 108.206 109.993C112.315 104.307 118.607 99.6181 125.62 99.672C132.633 99.7259 138.946 104.502 145.966 105.398C156.745 106.779 167.18 97.9878 169.794 87.3907C172.408 76.7937 168.44 65.4286 161.622 56.9335Z" fill="#F5F5F5"/>
<circle cx="231.122" cy="94.2546" r="23.4307" transform="rotate(-76.92 231.122 94.2546)" fill="#F5F5F5"/>
<path d="M173.627 254.505C164.35 247.546 163.347 235.958 165.145 227.187C166.944 218.416 176.484 209.752 185.403 208.997C190.388 208.573 195.333 209.934 200.305 210.459C205.277 210.985 210.794 210.506 214.452 207.091C217.956 203.817 218.912 198.683 221.465 194.621C225.865 187.608 235.202 184.448 243.219 186.496C251.236 188.544 257.676 195.254 260.337 203.076C262.998 210.897 262.122 219.696 258.895 227.328C255.668 234.961 250.212 241.476 243.926 246.865C233.289 255.98 219.276 264.381 205.304 265.418C191.332 266.456 183.072 262.225 172.67 253.75" fill="#F5F5F5"/>
<path d="M42.5214 301.784C43.7613 302.101 44.819 302.908 45.4519 304.021C46.0675 305.128 46.4245 306.36 46.4961 307.625C46.6983 310.064 45.8225 312.731 44.7446 314.928C42.3867 313.58 41.3223 310.609 40.8776 309.073C40.1703 306.648 40.3656 301.831 42.5214 301.784" fill="#3ED0A3"/>
<path d="M47.8501 318.397C47.3036 317.065 47.5063 315.544 48.3823 314.402C49.2732 313.284 50.5775 312.572 52 312.428C52.6477 312.294 53.3218 312.449 53.8459 312.853C54.2651 313.314 54.4041 313.965 54.2097 314.557C54.006 315.135 53.6554 315.651 53.1924 316.053C51.6699 317.487 49.9318 318.592 47.8501 318.397Z" fill="#3ED0A3"/>
<path d="M46.7317 326.205C46.716 326.039 46.716 325.872 46.7317 325.706C46.7317 325.349 46.7317 324.885 46.7317 324.359C46.6629 322.843 46.8404 321.325 47.2572 319.866C47.7038 318.402 48.5288 317.082 49.6488 316.039C49.9929 315.732 50.373 315.467 50.7806 315.251C50.8891 315.189 51.0016 315.135 51.1174 315.089L51.2387 315.042C50.7059 315.36 50.203 315.725 49.7363 316.133C48.6591 317.18 47.8642 318.483 47.4256 319.919C47.0063 321.343 46.7997 322.821 46.8126 324.305C46.8126 324.885 46.8126 325.356 46.7721 325.653C46.7742 325.837 46.7607 326.022 46.7317 326.205Z" fill="#263238"/>
<path d="M42.6965 305.442C42.6965 305.442 42.6965 305.509 42.7639 305.651C42.8313 305.792 42.8515 306.008 42.9188 306.257C43.0536 306.783 43.2355 307.551 43.4578 308.494C43.8957 310.394 44.4683 313.021 45.0342 315.938C45.6001 318.855 46.0515 321.503 46.3816 323.429C46.5298 324.393 46.6443 325.167 46.7184 325.706L46.7993 326.333C46.8068 326.405 46.8068 326.477 46.7993 326.549C46.7761 326.478 46.7581 326.406 46.7454 326.333C46.7454 326.178 46.6847 325.969 46.6376 325.72C46.5365 325.161 46.4085 324.373 46.2401 323.45C45.91 321.53 45.4384 318.889 44.8927 315.972C44.3471 313.055 43.7812 310.427 43.3702 308.527C43.1681 307.591 43.0064 306.823 42.8852 306.271C42.8313 306.021 42.7908 305.813 42.7572 305.658C42.7262 305.589 42.7058 305.517 42.6965 305.442H42.6965Z" fill="#263238"/>
<path d="M44.6704 320.533C43.5979 317.703 41.228 315.564 38.304 314.786C37.5697 314.597 36.6535 314.557 36.2021 315.17C35.7508 315.783 36.0472 316.645 36.4581 317.285C38.2452 319.987 41.4828 321.348 44.6636 320.735" fill="#3ED0A3"/>
<path d="M39.0788 316.975C39.2335 316.999 39.3865 317.033 39.5369 317.077C39.6851 317.117 39.867 317.164 40.0691 317.238C40.2712 317.312 40.5138 317.386 40.7428 317.501C40.9719 317.615 41.2683 317.73 41.5512 317.892C41.853 318.05 42.1455 318.225 42.427 318.417C44.0374 319.484 45.2814 321.02 45.9908 322.816C46.1022 323.092 46.1989 323.373 46.2805 323.658C46.3526 323.895 46.411 324.136 46.4557 324.379C46.499 324.559 46.5305 324.741 46.55 324.925C46.5773 325.081 46.5908 325.238 46.5904 325.397C46.55 325.397 46.4893 324.723 46.1592 323.699C46.0711 323.417 45.9677 323.141 45.8493 322.87C45.7211 322.56 45.5772 322.256 45.4182 321.961C45.037 321.286 44.5854 320.654 44.0708 320.074C43.5443 319.51 42.9619 319 42.3327 318.552C42.0363 318.357 41.7533 318.168 41.4704 318.02C41.2168 317.872 40.956 317.737 40.6889 317.615C39.7256 317.171 39.0653 317.016 39.0788 316.975Z" fill="#263238"/>
<path d="M108.59 304.364L108.913 318.572C108.913 318.572 94.6038 323.672 94.4421 326.326L122.009 326.677L122.407 304.526L108.59 304.364Z" fill="#3ED0A3"/>
<g opacity="0.6">
<path d="M117.475 317.487C118.022 317.662 118.35 318.219 118.237 318.781C118.082 319.336 117.518 319.671 116.957 319.542C116.391 319.356 116.051 318.78 116.162 318.195C116.371 317.622 117 317.323 117.577 317.521" fill="white"/>
</g>
<g opacity="0.6">
<path d="M121.976 326.656L121.928 324.426L95.52 324.918C95.52 324.918 94.2804 325.437 94.4084 326.306L121.976 326.656Z" fill="white"/>
</g>
<path d="M108.488 318.424C108.488 318.559 109.162 318.626 109.836 319.098C110.509 319.569 110.84 320.108 110.961 320.054C111.082 320 110.893 319.226 110.092 318.707C109.29 318.188 108.461 318.303 108.488 318.424Z" fill="#263238"/>
<path d="M105.585 319.589C105.585 319.717 106.131 319.953 106.582 320.533C107.033 321.112 107.155 321.711 107.256 321.705C107.357 321.698 107.485 320.943 106.912 320.236C106.339 319.529 105.585 319.455 105.585 319.589Z" fill="#263238"/>
<path d="M103.874 323.025C104.002 323.025 104.197 322.351 103.874 321.637C103.55 320.923 102.91 320.6 102.85 320.708C102.789 320.815 103.18 321.22 103.443 321.833C103.705 322.446 103.766 323.005 103.874 323.025Z" fill="#263238"/>
<path d="M108.771 315.177C108.832 315.298 109.445 315.123 110.206 315.177C110.968 315.231 111.554 315.487 111.635 315.372C111.715 315.258 111.136 314.773 110.24 314.698C109.344 314.624 108.711 315.069 108.771 315.177Z" fill="#263238"/>
<g opacity="0.3">
<path d="M108.677 307.18L108.731 309.706L122.279 309.76L122.34 306.837L108.677 307.18Z" fill="black"/>
</g>
<path d="M108.758 312.314C109.21 312.435 109.687 312.435 110.139 312.314C110.936 312.183 111.7 311.9 112.389 311.478C112.545 311.394 112.688 311.287 112.814 311.162C112.995 310.964 113.023 310.669 112.881 310.441C112.746 310.25 112.528 310.135 112.295 310.131C112.12 310.125 111.945 310.145 111.776 310.192C111.482 310.262 111.193 310.357 110.914 310.474C110.448 310.682 110.016 310.959 109.634 311.296C108.96 311.882 108.758 312.381 108.805 312.408C108.852 312.435 109.182 312.037 109.843 311.552C110.224 311.274 110.641 311.047 111.082 310.879C111.341 310.779 111.606 310.7 111.877 310.643C112.167 310.569 112.416 310.569 112.49 310.704C112.564 310.838 112.49 310.771 112.49 310.858C112.398 310.949 112.294 311.026 112.18 311.088C111.541 311.496 110.841 311.801 110.105 311.99C109.649 312.063 109.198 312.171 108.758 312.314Z" fill="#263238"/>
<path d="M108.933 312.509C109.204 312.114 109.339 311.641 109.317 311.162C109.345 310.653 109.288 310.143 109.149 309.653C109.063 309.359 108.948 309.074 108.805 308.804C108.644 308.443 108.307 308.191 107.916 308.137C107.665 308.144 107.44 308.289 107.33 308.514C107.257 308.675 107.207 308.845 107.181 309.019C107.135 309.327 107.135 309.641 107.181 309.949C107.253 310.467 107.449 310.959 107.754 311.384C108.286 312.105 108.845 312.273 108.859 312.226C108.872 312.179 108.435 311.896 108.03 311.202C107.657 310.569 107.52 309.824 107.646 309.1C107.693 308.81 107.808 308.575 107.916 308.608C108.024 308.642 108.286 308.831 108.394 309.066C108.529 309.306 108.64 309.559 108.724 309.821C108.873 310.267 108.959 310.732 108.98 311.202C109.014 311.983 108.859 312.482 108.933 312.509Z" fill="#263238"/>
<path d="M156.953 304.472L156.415 318.666C156.415 318.666 170.67 323.982 170.825 326.616L143.257 326.569L143.183 304.405L156.953 304.472Z" fill="#3ED0A3"/>
<g opacity="0.6">
<path d="M147.892 317.461C147.344 317.626 147.008 318.177 147.111 318.741C147.26 319.296 147.814 319.641 148.377 319.529C148.952 319.351 149.304 318.773 149.199 318.181C148.987 317.615 148.365 317.317 147.791 317.508" fill="white"/>
</g>
<g opacity="0.6">
<path d="M143.257 326.569L143.338 324.332L169.74 325.215C169.74 325.215 170.966 325.747 170.824 326.616L143.257 326.569Z" fill="white"/>
</g>
<path d="M156.866 318.532C156.866 318.666 156.192 318.72 155.518 319.158C154.845 319.596 154.501 320.155 154.373 320.101C154.245 320.048 154.454 319.266 155.262 318.754C156.071 318.242 156.893 318.404 156.866 318.532Z" fill="#263238"/>
<path d="M159.789 319.731C159.789 319.859 159.237 320.088 158.779 320.654C158.321 321.22 158.186 321.826 158.051 321.819C157.917 321.812 157.829 321.051 158.415 320.357C159.001 319.663 159.749 319.589 159.789 319.731Z" fill="#263238"/>
<path d="M161.393 323.194C161.265 323.194 161.083 322.52 161.427 321.813C161.77 321.105 162.403 320.782 162.464 320.896C162.525 321.011 162.127 321.402 161.851 322.008C161.575 322.614 161.521 323.18 161.393 323.194Z" fill="#263238"/>
<path d="M156.63 315.278C156.569 315.399 155.956 315.217 155.195 315.278C154.434 315.338 153.848 315.567 153.767 315.453C153.686 315.338 154.265 314.86 155.168 314.813C156.071 314.766 156.691 315.177 156.63 315.278Z" fill="#263238"/>
<g opacity="0.3">
<path d="M156.846 307.281L156.751 309.814L143.204 309.666L143.183 306.742L156.846 307.281Z" fill="black"/>
</g>
<path d="M156.684 312.415C156.242 312.531 155.778 312.531 155.337 312.415C154.837 312.327 154.351 312.178 153.888 311.97C153.598 311.837 153.319 311.682 153.053 311.505C152.897 311.42 152.756 311.311 152.635 311.182C152.452 310.986 152.427 310.691 152.574 310.468C152.712 310.276 152.932 310.161 153.167 310.158C153.343 310.156 153.518 310.181 153.686 310.232C153.98 310.303 154.267 310.402 154.542 310.528C155.005 310.742 155.434 311.024 155.815 311.364C156.448 311.957 156.67 312.462 156.623 312.489C156.576 312.516 156.253 312.112 155.599 311.62C155.222 311.342 154.81 311.116 154.373 310.946C154.115 310.843 153.849 310.76 153.578 310.697C153.289 310.623 153.039 310.616 152.965 310.751C152.891 310.885 152.965 310.818 152.965 310.906C153.057 310.998 153.161 311.077 153.275 311.141C153.509 311.296 153.752 311.435 154.003 311.559C154.433 311.776 154.885 311.947 155.35 312.071C155.803 312.152 156.249 312.267 156.684 312.415Z" fill="#263238"/>
<path d="M156.509 312.603C156.243 312.206 156.115 311.733 156.145 311.256C156.103 310.439 156.292 309.626 156.691 308.911C156.848 308.549 157.182 308.294 157.573 308.238C157.821 308.252 158.042 308.403 158.146 308.629C158.218 308.789 158.266 308.959 158.287 309.134C158.331 309.442 158.331 309.755 158.287 310.063C158.21 310.579 158.006 311.067 157.694 311.485C157.155 312.199 156.589 312.361 156.583 312.314C156.576 312.266 157.007 311.99 157.418 311.303C157.657 310.907 157.806 310.463 157.856 310.003C157.893 309.739 157.893 309.472 157.856 309.208C157.809 308.918 157.701 308.676 157.593 308.709C157.485 308.743 157.223 308.925 157.108 309.161C156.972 309.399 156.857 309.65 156.765 309.909C156.612 310.343 156.522 310.796 156.495 311.256C156.421 312.078 156.576 312.583 156.509 312.603Z" fill="#263238"/>
<path d="M142.476 167.862L160.14 317.514L143.278 318.303L122.616 195.396L123.491 317.649L106.488 316.598L98.0801 174.673L142.476 167.862Z" fill="#263238"/>
<path d="M108.482 85.7131C107.512 83.0875 106.773 80.3826 106.272 77.6289C105.77 74.8631 105.963 72.016 106.831 69.3426C106.98 68.9451 108.179 66.2639 108.623 66.2976C108.926 66.2976 108.179 68.8239 108.34 69.0799C109.745 71.6315 110.344 74.5485 110.058 77.447C109.843 80.2505 109.315 83.0209 108.482 85.7064" fill="#263238"/>
<path d="M116.317 109.009C111.979 108.976 108.466 105.478 108.414 101.141L108.078 75.0488C107.761 68.0424 111.581 62.0197 118.594 61.8984H119.267C125.797 62.1674 131.025 67.407 131.279 73.9372C131.515 80.0003 131.704 86.7372 131.529 89.9709C131.165 96.7077 124.401 97.4555 124.401 97.4555C124.401 97.4555 124.401 99.0184 124.401 100.992C124.405 103.122 123.557 105.164 122.046 106.665C120.535 108.166 118.487 109 116.357 108.982L116.317 109.009Z" fill="#B78876"/>
<path d="M124.374 97.4825C121.269 97.3472 118.267 96.3256 115.724 94.5385C115.724 94.5385 117.657 99.5102 124.394 99.1869L124.374 97.4825Z" fill="#995037"/>
<path d="M129.386 79.4074C129.368 79.9263 128.942 80.3374 128.423 80.3371C128.176 80.3462 127.935 80.2557 127.756 80.086C127.576 79.9163 127.472 79.6816 127.466 79.4344C127.481 78.9129 127.908 78.4977 128.43 78.4979C128.678 78.4888 128.919 78.5802 129.099 78.7514C129.279 78.9225 129.383 79.159 129.386 79.4074Z" fill="#263238"/>
<path d="M129.972 78.0736C129.844 78.1949 129.144 77.6222 128.106 77.5818C127.069 77.5414 126.294 78.0332 126.186 77.8984C126.078 77.7637 126.267 77.6222 126.604 77.3932C127.063 77.0998 127.603 76.9583 128.147 76.989C128.686 77.0073 129.206 77.1986 129.629 77.5347C129.932 77.7907 130.033 78.0197 129.972 78.0736Z" fill="#263238"/>
<path d="M120.197 78.8888C120.076 79.01 119.369 78.4441 118.331 78.4037C117.294 78.3633 116.519 78.8484 116.418 78.7136C116.317 78.5789 116.492 78.4374 116.836 78.2084C117.297 77.921 117.835 77.7801 118.378 77.8041C118.916 77.8239 119.433 78.0151 119.854 78.3498C120.157 78.6058 120.258 78.8349 120.197 78.8888Z" fill="#263238"/>
<path d="M122.939 84.7834C123.492 84.6405 124.059 84.5636 124.63 84.5544C124.893 84.5544 125.149 84.4937 125.203 84.3186C125.232 84.0448 125.181 83.7683 125.054 83.5236C124.832 82.8499 124.603 82.1763 124.381 81.5026C123.411 78.599 122.723 76.2142 122.845 76.1737C122.966 76.1333 123.842 78.4643 124.805 81.3678L125.479 83.3889C125.634 83.7122 125.667 84.0804 125.573 84.4264C125.488 84.6105 125.325 84.7466 125.128 84.7969C124.98 84.8284 124.829 84.842 124.677 84.8373C124.098 84.8955 123.514 84.8774 122.939 84.7834Z" fill="#263238"/>
<path d="M124.03 88.4214C123.882 88.4955 123.431 87.4647 122.238 87.1211C121.046 86.7776 119.988 87.3569 119.921 87.2222C119.854 87.0875 120.076 86.9123 120.534 86.6967C121.134 86.4309 121.808 86.3809 122.441 86.5552C123.05 86.7265 123.568 87.1306 123.882 87.6803C124.084 88.0912 124.084 88.3944 124.03 88.4214Z" fill="#263238"/>
<path d="M120.453 77.1843C120.305 77.447 119.308 77.1304 118.089 77.063C116.869 76.9957 115.845 77.1506 115.731 76.8744C115.683 76.7397 115.892 76.5106 116.33 76.3152C117.502 75.8376 118.828 75.9245 119.928 76.551C120.339 76.807 120.521 77.063 120.453 77.1843Z" fill="#263238"/>
<path d="M129.608 74.7388C129.406 74.9746 128.571 74.7388 127.587 74.7388C126.604 74.7388 125.748 74.9342 125.566 74.6917C125.479 74.5771 125.607 74.3414 125.971 74.1056C126.992 73.5345 128.237 73.5345 129.258 74.1056C129.581 74.3683 129.703 74.6176 129.608 74.7388Z" fill="#263238"/>
<path d="M108.421 80.0475C108.307 79.9936 103.854 78.4913 103.813 83.0993C103.773 87.7073 108.401 86.7911 108.408 86.6631C108.415 86.5351 108.421 80.0475 108.421 80.0475Z" fill="#B78876"/>
<path d="M107.02 84.9047C107.02 84.9047 106.939 84.9586 106.804 85.0192C106.612 85.0982 106.397 85.0982 106.205 85.0192C105.602 84.632 105.257 83.9488 105.302 83.234C105.292 82.8392 105.372 82.4474 105.538 82.0887C105.626 81.7967 105.853 81.5672 106.144 81.4757C106.334 81.4278 106.532 81.5209 106.616 81.698C106.676 81.826 106.649 81.9203 106.669 81.927C106.69 81.9338 106.771 81.8529 106.737 81.6643C106.711 81.5497 106.647 81.4475 106.555 81.3746C106.432 81.2748 106.274 81.2308 106.117 81.2533C105.738 81.319 105.418 81.5728 105.268 81.927C105.072 82.3249 104.973 82.7635 104.979 83.207C104.915 84.0524 105.371 84.8518 106.131 85.2281C106.38 85.3038 106.65 85.2616 106.865 85.1135C107.006 85.0125 107.033 84.9114 107.02 84.9047Z" fill="#995037"/>
<path d="M128.281 66.3313C129.022 65.9203 126.792 63.5085 124.96 62.6799C122.191 61.4201 117.967 60.6588 115.414 61.3325C112.342 62.2016 109.789 63.7308 108.246 66.5266C106.765 69.3741 106.068 72.5639 106.225 75.7696C106.195 76.7493 106.428 77.7191 106.899 78.5788C107.539 79.5961 108.771 80.2428 108.718 81.6441C108.684 82.1582 108.856 82.6645 109.196 83.0521C110.038 83.9481 111.069 83.106 111.54 82.2639C112.558 80.4584 112.672 78.3094 112.76 76.2412C112.904 74.7755 112.806 73.2961 112.47 71.8622C112.248 71.0942 111.884 70.3734 111.702 69.5919C111.469 68.8148 111.59 67.9748 112.032 67.2946C112.141 67.1555 112.265 67.0289 112.403 66.9174C113.71 65.7773 115.531 65.4321 117.166 66.0146C119.759 66.9308 124.185 68.3052 125.344 67.4226C126.169 66.8773 126.871 66.166 127.406 65.3342L128.281 66.3313Z" fill="#263238"/>
<path d="M145.319 183.748L142.483 158.303L140.354 119.141L139.06 101.41L135.651 101.929L133.213 101.289L128.261 102.266L125.674 98.2908L124.394 98.0483C124.394 101.289 123.909 104.273 122.252 106.429L108.886 96.418L107.471 96.7818L105.181 101.888C105.181 101.888 91.195 109.824 90.4404 110.956L97.8105 133.652L98.4236 158.74L97.2985 183.775L145.319 183.748Z" fill="#3ED0A3"/>
<path d="M99.8316 118.232C99.7777 118.232 99.5554 117.632 99.0164 116.73C98.316 115.564 97.4151 114.531 96.3554 113.678C95.2866 112.833 94.075 112.188 92.7781 111.771C91.7811 111.448 91.1276 111.374 91.1411 111.306C91.2949 111.28 91.4521 111.28 91.6059 111.306C92.0267 111.347 92.4435 111.421 92.8522 111.529C94.2078 111.893 95.4737 112.533 96.571 113.408C97.6714 114.278 98.5778 115.368 99.232 116.608C99.4345 116.98 99.6014 117.371 99.7305 117.774C99.8316 118.064 99.8788 118.218 99.8316 118.232Z" fill="#263238"/>
<path d="M136.211 106.341C135.97 105.774 135.84 105.166 135.827 104.549C135.701 103.948 135.688 103.33 135.786 102.724C136.165 103.89 136.309 105.119 136.211 106.341Z" fill="#263238"/>
<path d="M133.179 171.271C133.067 171.283 132.954 171.283 132.842 171.271L131.892 171.163C131.07 171.069 129.871 170.88 128.423 170.611C120.797 169.168 113.452 166.509 106.67 162.735C105.369 162.015 104.339 161.388 103.645 160.937C103.328 160.728 103.059 160.559 102.843 160.411C102.628 160.263 102.574 160.223 102.58 160.209C102.687 160.247 102.789 160.296 102.884 160.357L103.712 160.822C104.433 161.24 105.477 161.826 106.784 162.52C113.604 166.151 120.906 168.794 128.47 170.368C129.918 170.665 131.097 170.887 131.913 171.042L132.856 171.21C132.966 171.216 133.075 171.236 133.179 171.271Z" fill="#263238"/>
<path d="M163.118 96.903L151.173 77.7367L147.131 71.1953C146.603 70.2305 145.971 69.3268 145.245 68.5005C143.446 66.5468 142.173 67.9548 142.173 67.9548C141.972 67.477 141.491 67.1792 140.974 67.2138C140.32 67.2109 139.705 67.5247 139.323 68.0559C138.803 67.6318 138.148 67.4094 137.477 67.4294C137.17 67.4255 136.869 67.5225 136.622 67.7056C136.177 67.3148 135.362 66.7557 134.601 67.0319C133.988 67.2542 130.276 70.0769 129.359 71.4984C128.908 72.1721 129.743 73.1153 130.875 72.6908C131.337 72.5402 131.788 72.3555 132.222 72.1384C132.566 71.9431 132.876 71.6928 133.139 71.3974C133.139 71.3974 132.202 73.0412 133.139 73.3241C133.759 73.4501 134.403 73.2946 134.897 72.8997C135.254 72.5965 135.665 72.226 136.056 71.8285C136.036 71.8481 136.02 71.8709 136.009 71.8959C135.49 72.6572 136.837 73.7889 137.491 73.3308C137.796 73.1244 138.089 72.8994 138.366 72.6572C139.882 73.7553 137.774 75.1633 136.884 75.0892C135.516 74.9883 134.143 74.9883 132.775 75.0892C132.089 75.0879 131.424 75.3262 130.895 75.7628C130.397 76.2748 130.895 77.3662 131.63 77.474C132.977 77.6761 134.607 77.9658 136.345 78.4104C138.366 78.9359 143.756 80.674 143.756 80.674L144.275 81.0984L151.537 98.8096L139.108 101.444L136.332 117.194L158.772 111.131C163.785 108.443 166.183 101.713 163.118 96.903Z" fill="#B78876"/>
<path d="M143.709 80.6404C143.612 80.6288 143.517 80.6062 143.426 80.573L142.617 80.3439L139.667 79.4682L137.646 78.8484C136.911 78.6261 136.13 78.3903 135.294 78.1747C134.431 77.9384 133.553 77.7562 132.667 77.629C132.18 77.6203 131.698 77.5339 131.239 77.373C131.118 77.3143 131.01 77.2318 130.922 77.1305C130.871 77.0778 130.834 77.0129 130.814 76.9418L130.781 76.7465C130.742 76.4874 130.76 76.2229 130.835 75.9717C130.921 75.713 131.105 75.498 131.347 75.3722C131.562 75.2583 131.787 75.1658 132.02 75.0959C132.489 74.9652 132.975 74.9062 133.462 74.9208C134.412 74.9208 135.301 75.0623 136.157 75.0286C136.57 75.0165 136.982 74.976 137.39 74.9073C137.787 74.8332 138.171 74.7322 138.542 74.6378C139.228 74.4239 139.946 74.3327 140.664 74.3684C141.253 74.4228 141.83 74.5683 142.375 74.7995C142.783 74.9721 143.181 75.1677 143.567 75.3856C143.891 75.5675 144.126 75.7157 144.288 75.8168C144.374 75.8623 144.455 75.9165 144.531 75.9785C144.442 75.943 144.356 75.9002 144.275 75.8505L143.534 75.453C143.145 75.245 142.745 75.0605 142.334 74.9006C141.797 74.6827 141.229 74.5487 140.65 74.5031C139.949 74.4738 139.249 74.5696 138.582 74.7861C138.211 74.8871 137.827 74.9949 137.423 75.069C137.008 75.1486 136.586 75.1936 136.163 75.2037C135.294 75.2442 134.385 75.1162 133.469 75.1027C133.002 75.0903 132.536 75.1493 132.088 75.2778C131.643 75.4193 131.131 75.581 130.996 76.0324C130.938 76.2519 130.924 76.4811 130.956 76.7061V76.8745C130.969 76.9195 130.992 76.9609 131.023 76.9957C131.096 77.079 131.185 77.1456 131.286 77.1911C131.721 77.3371 132.175 77.4188 132.633 77.4336C133.527 77.5644 134.411 77.7511 135.281 77.9928C136.116 78.2084 136.898 78.4442 137.625 78.6665L139.646 79.3065L142.584 80.2429L143.379 80.5056C143.493 80.5399 143.603 80.585 143.709 80.6404Z" fill="#995037"/>
<path d="M134.506 67.0454C134.506 67.0791 133.94 67.4159 133.078 68.0694C132.577 68.4513 132.101 68.863 131.65 69.3023C131.144 69.8008 130.605 70.3801 129.972 70.9258C129.657 71.1441 129.421 71.4584 129.299 71.8218C129.208 72.1601 129.406 72.5083 129.743 72.6033C130.056 72.6874 130.386 72.6874 130.7 72.6033C130.986 72.5504 131.265 72.4691 131.535 72.3608C132.07 72.1354 132.569 71.8336 133.017 71.4648C132.924 71.5943 132.813 71.71 132.687 71.8084C132.356 72.0848 131.986 72.3117 131.589 72.482C131.313 72.5997 131.027 72.69 130.733 72.7515C130.389 72.8423 130.027 72.8423 129.683 72.7515C129.487 72.6901 129.32 72.5611 129.211 72.3877C129.104 72.1998 129.07 71.9791 129.117 71.7679C129.242 71.3604 129.5 71.0069 129.851 70.7641C130.471 70.2252 131.01 69.6526 131.528 69.1608C131.988 68.7169 132.481 68.3092 133.004 67.9414C133.442 67.6248 133.819 67.3957 134.082 67.2677C134.216 67.181 134.358 67.1066 134.506 67.0454V67.0454Z" fill="#995037"/>
<path d="M139.06 68.5544C138.932 68.7337 138.79 68.9026 138.636 69.0596L137.437 70.3733L135.645 72.3472C135.285 72.7436 134.856 73.0702 134.378 73.3106C134.119 73.4428 133.834 73.5142 133.543 73.5194C133.23 73.526 132.928 73.4043 132.707 73.1826C132.592 73.0585 132.521 72.8998 132.505 72.7312C132.495 72.5721 132.514 72.4124 132.559 72.2596C132.642 71.9749 132.771 71.7062 132.943 71.4647L134.722 69.5514C135.267 68.9653 135.793 68.4937 136.217 68.0895C136.404 67.8972 136.615 67.7296 136.844 67.591C137.031 67.5095 137.233 67.466 137.437 67.463C137.753 67.463 137.942 67.463 137.929 67.5034C137.766 67.4764 137.6 67.4764 137.437 67.5034C137.247 67.514 137.06 67.5573 136.884 67.6314C136.669 67.7754 136.472 67.945 136.298 68.1367C135.881 68.5544 135.369 69.0327 134.836 69.6188C134.304 70.2049 133.711 70.8584 133.071 71.5523C132.917 71.78 132.799 72.0299 132.721 72.2933C132.682 72.4221 132.666 72.5566 132.674 72.6908C132.687 72.819 132.742 72.9395 132.829 73.0344C133.008 73.2123 133.25 73.3117 133.502 73.3106C133.765 73.3079 134.024 73.2433 134.257 73.122C134.711 72.8923 135.122 72.5845 135.47 72.2125L137.295 70.2992L138.535 69.0192L138.878 68.6824C138.931 68.6289 138.992 68.5855 139.06 68.5544Z" fill="#995037"/>
<path d="M144.638 70.3262C144.638 70.3262 144.638 70.4407 144.497 70.5418C144.324 70.6725 144.105 70.7261 143.891 70.69C143.679 70.65 143.492 70.5261 143.372 70.3464C143.291 70.2049 143.291 70.1039 143.311 70.0971C143.331 70.0904 143.385 70.1645 143.48 70.2588C143.598 70.3852 143.754 70.4702 143.924 70.5013C144.094 70.5256 144.267 70.4999 144.423 70.4272C144.551 70.3262 144.618 70.3262 144.638 70.3262Z" fill="#995037"/>
<path d="M145.076 71.9834C145.036 72.0171 144.766 71.7409 144.524 71.3097C144.35 71.0758 144.245 70.7982 144.221 70.5081C144.268 70.5081 144.45 70.818 144.686 71.1817C144.861 71.4247 144.993 71.6959 145.076 71.9834Z" fill="#995037"/>
<path d="M145.885 78.498C145.723 78.2697 145.605 78.0141 145.534 77.7435C145.328 77.0901 145.228 76.4077 145.238 75.7225C145.247 75.0477 145.366 74.3788 145.588 73.7418C145.672 73.4737 145.794 73.2194 145.952 72.9873C145.655 73.8712 145.478 74.7912 145.427 75.7225C145.445 76.6649 145.6 77.5996 145.885 78.498Z" fill="#995037"/>
<path d="M155.694 103.748C155.653 103.748 155.619 103.357 155.431 102.764C155.316 102.42 155.172 102.086 155 101.767C154.574 100.983 153.977 100.304 153.255 99.7796C152.962 99.5632 152.648 99.3759 152.318 99.2205C151.752 98.9577 151.368 98.8701 151.382 98.8365C151.395 98.8028 151.476 98.8365 151.651 98.8701C151.898 98.9238 152.14 99.0005 152.372 99.0992C152.719 99.2403 153.048 99.4187 153.356 99.6314C154.114 100.159 154.731 100.865 155.155 101.686C155.325 102.019 155.46 102.369 155.559 102.73C155.626 102.973 155.671 103.221 155.694 103.471C155.706 103.563 155.706 103.656 155.694 103.748Z" fill="#995037"/>
<path d="M141.499 69.1876C141.446 69.2884 141.383 69.3832 141.31 69.4706C141.176 69.6457 140.98 69.8883 140.731 70.1847C140.233 70.7843 139.518 71.5859 138.71 72.428C138.347 72.8714 137.886 73.2242 137.363 73.4588C137.114 73.5466 136.843 73.5466 136.595 73.4588C136.382 73.3723 136.207 73.212 136.103 73.0074C135.957 72.7206 135.908 72.3948 135.961 72.0777C135.968 71.9629 135.998 71.8507 136.049 71.7476C136.061 71.8596 136.061 71.9725 136.049 72.0845C136.028 72.3811 136.091 72.6776 136.231 72.94C136.327 73.1102 136.479 73.2413 136.662 73.3106C136.88 73.3876 137.118 73.3876 137.336 73.3106C137.823 73.0699 138.252 72.7276 138.596 72.3068C139.431 71.4714 140.158 70.6832 140.677 70.1106C140.928 69.7833 141.203 69.4748 141.499 69.1876V69.1876Z" fill="#995037"/>
<path d="M144.093 69.4706C144.035 69.5649 143.967 69.6529 143.891 69.7334C143.749 69.8951 143.547 70.1241 143.291 70.4071L142.382 71.3906L141.843 71.9633C141.649 72.177 141.437 72.3732 141.209 72.5494C140.974 72.7324 140.691 72.8446 140.394 72.8727C140.097 72.9036 139.805 72.7756 139.626 72.5359C139.543 72.4229 139.501 72.2853 139.505 72.1452C139.509 72.0177 139.548 71.8939 139.619 71.7881C139.732 71.6112 139.853 71.4403 139.983 71.2761C140.206 70.9662 140.387 70.7237 140.522 70.5553C140.582 70.4628 140.655 70.379 140.738 70.306C140.738 70.306 140.691 70.4138 140.576 70.5957C140.462 70.7776 140.293 71.0336 140.084 71.3435C139.983 71.5052 139.849 71.6736 139.747 71.8555C139.623 72.0309 139.623 72.2662 139.747 72.4416C139.894 72.631 140.13 72.7284 140.367 72.6976C140.634 72.6732 140.887 72.5701 141.095 72.4012C141.316 72.2344 141.522 72.0472 141.708 71.842L142.254 71.2761L143.183 70.3262L143.823 69.693C143.992 69.538 144.079 69.4639 144.093 69.4706Z" fill="#995037"/>
<path d="M137.922 101.585L148.357 99.3014L147.07 117.161L136.622 121.506L134.432 118.562L134.102 109.346L137.922 101.585Z" fill="#3ED0A3"/>
<path d="M90.6492 110.747C89.5878 111.409 88.8246 112.458 88.5204 113.671C87.8871 115.827 82.6863 133.882 82.6863 133.882L91.4442 133.659L98.4033 125.205L93.0947 110.936L90.6492 110.747Z" fill="#3ED0A3"/>
<path d="M136.891 155.635L251.869 175.697L244.957 92.1536L136.891 140.241V155.635Z" fill="#3ED0A3"/>
<g opacity="0.8">
<path d="M136.891 155.635L251.869 175.697L244.957 92.1536L136.891 140.241V155.635Z" fill="white"/>
</g>
<path d="M217.639 131.059C218.198 131.754 218.089 132.771 217.394 133.331C216.7 133.891 215.683 133.783 215.122 133.089C214.561 132.395 214.668 131.378 215.362 130.816C215.696 130.546 216.123 130.42 216.551 130.465C216.978 130.511 217.369 130.724 217.639 131.059Z" fill="#3ED0A3"/>
<g opacity="0.6">
<path d="M217.639 131.059C218.198 131.754 218.089 132.771 217.394 133.331C216.7 133.891 215.683 133.783 215.122 133.089C214.561 132.395 214.668 131.378 215.362 130.816C215.696 130.546 216.123 130.42 216.551 130.465C216.978 130.511 217.369 130.724 217.639 131.059Z" fill="white"/>
</g>
<path d="M178.592 136.246C178.872 136.594 178.817 137.102 178.47 137.382C178.123 137.662 177.614 137.608 177.334 137.261C177.053 136.914 177.107 136.406 177.453 136.125C177.802 135.847 178.31 135.901 178.592 136.246Z" fill="#3ED0A3"/>
<g opacity="0.6">
<path d="M178.592 136.246C178.872 136.594 178.817 137.102 178.47 137.382C178.123 137.662 177.614 137.608 177.334 137.261C177.053 136.914 177.107 136.406 177.453 136.125C177.802 135.847 178.31 135.901 178.592 136.246Z" fill="white"/>
</g>
<path d="M198.095 145.779C198.302 146.033 198.335 146.387 198.179 146.675C198.022 146.963 197.708 147.128 197.382 147.093C197.056 147.058 196.784 146.83 196.692 146.515C196.6 146.201 196.707 145.862 196.963 145.658C197.31 145.381 197.815 145.435 198.095 145.779Z" fill="#3ED0A3"/>
<g opacity="0.6">
<path d="M198.095 145.779C198.302 146.033 198.335 146.387 198.179 146.675C198.022 146.963 197.708 147.128 197.382 147.093C197.056 147.058 196.784 146.83 196.692 146.515C196.6 146.201 196.707 145.862 196.963 145.658C197.31 145.381 197.815 145.435 198.095 145.779Z" fill="white"/>
</g>
<circle cx="212.027" cy="120.9" r="0.808421" fill="#3ED0A3"/>
<g opacity="0.6">
<circle cx="212.027" cy="120.9" r="0.808421" fill="white"/>
</g>
<path d="M142.516 142.693C142.792 143.038 142.737 143.542 142.393 143.819C142.048 144.096 141.545 144.042 141.267 143.698C140.989 143.355 141.042 142.851 141.385 142.572C141.55 142.436 141.763 142.371 141.976 142.394C142.189 142.417 142.384 142.525 142.516 142.693Z" fill="#3ED0A3"/>
<g opacity="0.6">
<path d="M142.516 142.693C142.792 143.038 142.737 143.542 142.393 143.819C142.048 144.096 141.545 144.042 141.267 143.698C140.989 143.355 141.042 142.851 141.385 142.572C141.55 142.436 141.763 142.371 141.976 142.394C142.189 142.417 142.384 142.525 142.516 142.693Z" fill="white"/>
</g>
<ellipse cx="249.295" cy="133.828" rx="12.8741" ry="41.984" transform="rotate(-4.41 249.295 133.828)" fill="#3ED0A3"/>
<g opacity="0.7">
<ellipse cx="249.295" cy="133.828" rx="12.8741" ry="41.984" transform="rotate(-4.41 249.295 133.828)" fill="white"/>
</g>
<g opacity="0.3">
<path d="M135.955 116.069C135.389 115.345 134.609 114.819 133.725 114.567C129.602 113.098 124.906 114.271 121.214 116.588C117.523 118.906 114.626 122.321 111.783 125.656C107.121 131.153 102.641 135.539 97.979 141.036L98.0801 145.2C101.448 145.26 104.75 143.387 107.249 141.157C109.748 138.928 111.628 136.125 113.433 133.309C115.239 130.493 116.997 127.623 119.315 125.225C120.089 124.267 121.169 123.604 122.373 123.345C123.619 123.19 124.819 123.803 126.031 124.147C129.632 125.081 133.431 123.652 135.523 120.576C136.406 119.256 136.884 117.403 135.955 116.069Z" fill="black"/>
</g>
<g opacity="0.3">
<path d="M129.615 139.541C128.046 139.352 126.55 140.463 125.795 141.851C125.134 143.292 124.763 144.848 124.704 146.432C124.3 150.331 123.9 154.231 123.505 158.134C123.25 159.569 123.319 161.042 123.707 162.446C124.095 163.377 124.627 164.241 125.283 165.006C125.874 165.874 126.61 166.633 127.459 167.249C128.619 167.889 129.922 168.223 131.246 168.219C133.105 168.321 134.97 168.226 136.81 167.936C137.8 167.867 138.743 167.488 139.505 166.852C140.098 166.143 140.472 165.277 140.583 164.359C141.93 157.669 140.953 150.751 139.97 143.987C139.761 142.552 139.525 141.043 138.622 139.904C137.464 138.436 135.416 137.883 133.556 138.112C131.709 138.423 129.926 139.04 128.281 139.938" fill="black"/>
</g>
<path d="M83.5959 131.753L82.1138 135.714C81.6759 137.378 81.0157 140.982 81.6085 142.599C82.0801 143.886 82.902 145.119 84.3032 145.294C87.4493 145.738 95.3449 139.096 95.3449 139.096L93.499 130.789L83.5959 131.753Z" fill="#B78876"/>
<path d="M117.462 109.757C117.462 109.757 90.3665 127.401 89.1674 128.283C87.1913 129.484 85.5179 131.123 84.2764 133.073C82.0735 136.253 80.7867 143.744 84.3236 145.314C85.925 145.704 87.5769 145.845 89.2212 145.732C93.0276 145.058 101.179 140.659 104.985 136.044C108.792 131.429 122.151 117.302 122.151 117.302L117.462 109.757Z" fill="#B78876"/>
<path d="M117.071 110.013C117.071 110.013 120.871 108.396 122.144 108.322C123.175 108.268 130.585 109.46 133.172 109.501C133.752 109.51 134.276 109.85 134.52 110.377C135.193 111.839 136.487 114.668 136.716 115.187C137.039 115.901 136.494 117.37 135.827 118.272C135.772 118.632 135.545 118.942 135.22 119.105C134.894 119.267 134.51 119.26 134.19 119.087L133.9 119.802C133.547 120.652 132.681 121.173 131.764 121.088L127.945 120.718C127.881 120.325 127.994 119.924 128.254 119.622C128.514 119.321 128.894 119.15 129.292 119.155L131.448 118.932L131.414 117.754C131.414 117.754 127.621 118.259 126.483 118.245C125.344 118.232 119.409 117.134 119.409 117.134L117.071 110.013Z" fill="#B78876"/>
<path d="M134.304 119.121C134.203 119.121 134.068 117.673 133.577 115.948C133.085 114.223 132.445 112.917 132.539 112.869C133.77 114.716 134.387 116.904 134.304 119.121Z" fill="#995037"/>
<path d="M135.975 117.774C135.867 117.774 135.739 116.319 135.247 114.601C134.755 112.883 134.115 111.569 134.21 111.515C135.439 113.365 136.056 115.554 135.975 117.774Z" fill="#995037"/>
<path d="M91.6262 126.639C91.707 126.747 88.8708 128.196 86.3243 131.059C83.7778 133.922 82.7336 136.94 82.6123 136.873C82.6307 136.689 82.6784 136.509 82.7538 136.341C82.9206 135.868 83.1117 135.405 83.3264 134.953C84.0369 133.455 84.958 132.067 86.0616 130.83C87.1645 129.593 88.4289 128.51 89.8207 127.61C90.3597 127.273 90.7976 127.01 91.1209 126.855C91.4443 126.7 91.6127 126.613 91.6262 126.639Z" fill="#995037"/>
<path d="M131.582 117.484C131.445 117.535 131.303 117.573 131.158 117.599C130.875 117.659 130.484 117.74 129.918 117.807C128.382 118.013 126.824 118.002 125.29 117.774C124.805 117.706 124.3 117.619 123.774 117.524C123.251 117.403 122.715 117.338 122.178 117.329C121.635 117.433 121.152 117.742 120.83 118.191C120.44 118.643 120.042 119.155 119.604 119.62L113.952 125.811C109.91 130.183 106.104 133.996 103.321 136.731C101.934 138.079 100.788 139.183 99.9934 139.924L99.0705 140.773C98.9671 140.878 98.8544 140.973 98.7336 141.056C98.7336 141.056 98.8212 140.935 99.0233 140.726C99.2254 140.517 99.5421 140.194 99.8991 139.83L103.146 136.549C105.881 133.78 109.654 129.94 113.696 125.575L119.362 119.404C119.813 118.939 120.184 118.461 120.595 117.983C120.979 117.477 121.544 117.139 122.171 117.039C122.467 117.02 122.764 117.043 123.054 117.107L123.849 117.262L125.351 117.531C126.863 117.774 128.401 117.822 129.925 117.673C130.471 117.626 130.889 117.565 131.172 117.531C131.307 117.502 131.444 117.486 131.582 117.484Z" fill="white"/>
<path d="M133.799 119.061C133.833 119.061 133.799 119.424 133.422 119.835C132.932 120.359 132.274 120.693 131.562 120.778C130.884 120.848 130.199 120.793 129.541 120.617C129.036 120.489 128.739 120.374 128.746 120.327C129.027 120.293 129.313 120.309 129.588 120.374C130.237 120.477 130.896 120.495 131.549 120.428C132.188 120.35 132.79 120.085 133.28 119.667C133.617 119.337 133.745 119.04 133.799 119.061Z" fill="white"/>
<path d="M135.537 117.774C135.631 117.774 135.625 118.043 135.537 118.299C135.449 118.555 135.288 118.737 135.2 118.703C135.113 118.67 135.113 118.434 135.2 118.178C135.288 117.922 135.416 117.74 135.537 117.774Z" fill="white"/>
<path d="M138.117 173.205C137.788 173.238 137.456 173.238 137.127 173.205C136.494 173.205 135.577 173.205 134.432 173.104C128.519 172.705 122.691 171.481 117.118 169.466C116.054 169.075 115.198 168.738 114.619 168.482C114.309 168.371 114.011 168.229 113.73 168.058C114.052 168.131 114.367 168.23 114.673 168.354C115.266 168.576 116.128 168.873 117.199 169.23C119.994 170.162 122.839 170.935 125.721 171.547C128.614 172.143 131.538 172.58 134.479 172.854C135.604 172.955 136.5 173.029 137.174 173.07C137.492 173.086 137.808 173.131 138.117 173.205Z" fill="white"/>
<path d="M130.437 91.9447C130.446 92.1395 130.416 92.3341 130.35 92.5173C130.217 93.0338 129.989 93.5207 129.676 93.9523C128.578 95.3694 126.961 96.2907 125.182 96.5123C123.433 96.6927 121.665 96.4904 120.002 95.9194C119.368 95.7241 118.863 95.5354 118.52 95.394C118.333 95.3345 118.156 95.2483 117.994 95.138C118.697 95.2839 119.392 95.466 120.076 95.6836C121.716 96.1678 123.433 96.3324 125.135 96.1687C126.827 95.9485 128.377 95.1054 129.48 93.8041C129.888 93.2342 130.21 92.6078 130.437 91.9447Z" fill="white"/>
<path d="M146.363 116.649C145.544 117.196 144.665 117.648 143.742 117.996C142.868 118.44 141.943 118.775 140.987 118.993C141.808 118.457 142.687 118.016 143.608 117.679C144.48 117.224 145.406 116.877 146.363 116.649V116.649Z" fill="white"/>
<path d="M160.874 108.874C160.316 109.21 159.727 109.492 159.116 109.716C158.011 110.188 156.462 110.794 154.73 111.407C152.999 112.02 151.416 112.499 150.257 112.822C149.64 113.032 149.004 113.179 148.357 113.26C148.947 112.987 149.557 112.761 150.183 112.586L154.616 111.071L159.028 109.487C159.624 109.228 160.242 109.022 160.874 108.874V108.874Z" fill="white"/>
<path d="M128.194 141.589C128.194 141.589 124.084 147.746 126.927 153.863C127.618 155.337 128.812 156.515 130.296 157.184L130.39 157.225H136.365C138.166 156.28 139.458 154.589 139.896 152.603C140.529 149.639 140.778 145.193 138.009 141.723L137.753 140.854L128.194 141.589Z" fill="#FAFAFA"/>
<path d="M128.194 141.589L128.827 141.528L130.713 141.346C132.357 141.184 134.755 140.935 137.767 140.672H137.881V140.78L138.144 141.649V141.602C139.621 143.513 140.443 145.85 140.488 148.265C140.537 149.621 140.424 150.978 140.152 152.307C139.912 153.741 139.231 155.064 138.205 156.093C137.947 156.337 137.673 156.562 137.383 156.767C137.235 156.874 137.086 156.976 136.931 157.07L136.702 157.211L136.588 157.272L136.527 157.306H136.446H130.43H130.397C129.225 156.794 128.213 155.978 127.466 154.941C127.122 154.455 126.845 153.925 126.644 153.365C126.55 153.095 126.422 152.832 126.348 152.563C126.274 152.293 126.206 152.024 126.139 151.761C125.744 149.905 125.783 147.982 126.253 146.143C126.557 144.945 126.995 143.785 127.56 142.687C127.763 142.309 127.931 142.013 128.045 141.831C128.103 141.732 128.17 141.639 128.248 141.555C128.206 141.66 128.157 141.761 128.099 141.858C127.992 142.06 127.843 142.35 127.661 142.741C127.138 143.844 126.733 145 126.456 146.19C126.024 148 126.01 149.884 126.415 151.701C126.483 151.957 126.557 152.213 126.631 152.475C126.705 152.738 126.826 152.987 126.92 153.25C127.115 153.788 127.385 154.296 127.722 154.759C128.443 155.746 129.415 156.521 130.538 157.002H130.471H136.446H136.365H136.419L136.527 156.942L136.749 156.807C136.891 156.72 137.032 156.618 137.174 156.517C138.573 155.486 139.519 153.953 139.815 152.24C140.078 150.945 140.191 149.625 140.152 148.305C140.123 145.955 139.341 143.677 137.922 141.804C137.834 141.501 137.747 141.198 137.672 140.928L137.814 141.029C134.917 141.245 132.546 141.386 130.868 141.494L128.194 141.589Z" fill="#263238"/>
<path d="M138.73 148.77C138.683 147.086 138.306 145.294 137.093 144.115C136.204 143.338 135.113 142.829 133.947 142.646C132.817 142.35 131.625 142.402 130.525 142.794C128.989 143.468 128.059 145.051 127.608 146.661C127.02 148.549 127.135 150.585 127.931 152.394C128.768 154.211 130.542 155.414 132.539 155.52L133.886 155.413C135.475 155.486 136.969 154.657 137.747 153.27C138.497 151.895 138.838 150.333 138.73 148.77Z" fill="#3ED0A3"/>
<g opacity="0.8">
<path d="M138.73 148.77C138.683 147.086 138.306 145.294 137.093 144.115C136.204 143.338 135.113 142.829 133.947 142.646C132.817 142.35 131.625 142.402 130.525 142.794C128.989 143.468 128.059 145.051 127.608 146.661C127.02 148.549 127.135 150.585 127.931 152.394C128.768 154.211 130.542 155.414 132.539 155.52L133.886 155.413C135.475 155.486 136.969 154.657 137.747 153.27C138.497 151.895 138.838 150.333 138.73 148.77Z" fill="white"/>
</g>
<path d="M138.73 148.77C138.683 147.086 138.306 145.294 137.093 144.115C136.204 143.338 135.113 142.829 133.947 142.646C132.817 142.35 131.625 142.402 130.525 142.794C128.989 143.468 128.059 145.051 127.608 146.661C127.02 148.549 127.135 150.585 127.931 152.394C128.768 154.211 130.542 155.414 132.539 155.52L133.886 155.413C135.475 155.486 136.969 154.657 137.747 153.27C138.497 151.895 138.838 150.333 138.73 148.77Z" fill="#3ED0A3"/>
<g opacity="0.7">
<path d="M138.73 148.77C138.683 147.086 138.306 145.294 137.093 144.115C136.204 143.338 135.113 142.829 133.947 142.646C132.817 142.35 131.625 142.402 130.525 142.794C128.989 143.468 128.059 145.051 127.608 146.661C127.02 148.549 127.135 150.585 127.931 152.394C128.768 154.211 130.542 155.414 132.539 155.52L133.886 155.413C135.475 155.486 136.969 154.657 137.747 153.27C138.497 151.895 138.838 150.333 138.73 148.77Z" fill="white"/>
</g>
<path d="M136.325 149.868C136.219 148.428 135.586 147.078 134.547 146.075C134.329 145.837 134.059 145.653 133.758 145.536C133.453 145.415 133.106 145.466 132.849 145.671C132.575 145.98 132.488 146.412 132.62 146.803C132.754 147.184 132.855 147.576 132.923 147.975C132.864 148.814 132.441 149.584 131.764 150.084C131.092 150.578 130.577 151.257 130.282 152.037C130.14 152.749 130.354 153.486 130.855 154.011C131.286 154.525 131.881 154.875 132.539 155.002C133.45 154.889 134.291 154.46 134.917 153.789C135.914 152.736 136.424 151.314 136.325 149.868Z" fill="#3ED0A3"/>
<g opacity="0.4">
<path d="M136.325 149.868C136.219 148.428 135.586 147.078 134.547 146.075C134.329 145.837 134.059 145.653 133.758 145.536C133.453 145.415 133.106 145.466 132.849 145.671C132.575 145.98 132.488 146.412 132.62 146.803C132.754 147.184 132.855 147.576 132.923 147.975C132.864 148.814 132.441 149.584 131.764 150.084C131.092 150.578 130.577 151.257 130.282 152.037C130.14 152.749 130.354 153.486 130.855 154.011C131.286 154.525 131.881 154.875 132.539 155.002C133.45 154.889 134.291 154.46 134.917 153.789C135.914 152.736 136.424 151.314 136.325 149.868Z" fill="white"/>
</g>
<path d="M132.842 154.853C132.192 154.543 131.744 153.924 131.65 153.21C131.603 152.863 131.669 152.511 131.838 152.206C132.137 151.838 132.487 151.513 132.876 151.242C133.304 150.838 133.58 150.298 133.657 149.713C133.663 149.611 133.686 149.511 133.725 149.417C133.76 149.319 133.856 149.256 133.961 149.262C134.068 149.262 134.142 149.376 134.196 149.471C134.449 149.887 134.631 150.342 134.735 150.818C134.837 151.304 134.809 151.808 134.654 152.28C134.311 153.257 133.381 153.903 132.876 154.806" fill="#3ED0A3"/>
<path d="M131.03 144.122C131.03 144.169 130.585 144.438 129.979 145.045C129.186 145.825 128.612 146.801 128.315 147.874C128.032 148.949 128.032 150.08 128.315 151.155C128.537 151.983 128.814 152.448 128.76 152.502C128.441 152.143 128.21 151.714 128.086 151.249C127.708 150.136 127.666 148.937 127.965 147.8C128.274 146.666 128.915 145.651 129.804 144.883C130.143 144.531 130.564 144.27 131.03 144.122V144.122Z" fill="#3ED0A3"/>
<path d="M132.296 143.407C132.33 143.502 132.222 143.623 132.054 143.69C131.885 143.758 131.717 143.738 131.683 143.643C131.65 143.549 131.757 143.428 131.926 143.36C132.094 143.293 132.256 143.32 132.296 143.407Z" fill="#3ED0A3"/>
<path fill-rule="evenodd" clip-rule="evenodd" d="M128.005 162.655C129.581 162.749 131.367 162.783 133.051 162.783C136.386 162.783 139.323 162.655 139.397 162.641H139.512C139.66 162.607 143.237 161.745 143.661 158.154C144.039 154.927 141.984 138.456 141.876 137.594C141.755 136.226 140.414 133.7 136.258 133.848L130.019 133.929C128.795 133.702 127.531 133.968 126.503 134.67C125.337 135.539 124.677 137.007 124.536 139.029C124.484 139.734 124.423 140.566 124.355 141.48C123.907 147.583 123.188 157.357 123.188 157.743C123.094 158.909 123.445 160.067 124.172 160.984C125.155 162.059 126.548 162.666 128.005 162.655ZM127.203 135.687C127.764 135.29 128.437 135.084 129.123 135.101C129.349 135.114 129.573 135.152 129.79 135.215H129.864L136.264 135.141C137.949 135.081 139.222 135.498 139.97 136.388C140.3 136.771 140.519 137.237 140.603 137.735C140.63 137.903 142.759 154.921 142.395 158.006C142.092 160.519 139.646 161.274 139.256 161.375C139.129 161.375 138.82 161.384 138.371 161.396C136.382 161.454 131.66 161.589 128.086 161.375C126.981 161.395 125.917 160.956 125.149 160.162C124.635 159.5 124.381 158.674 124.435 157.838C124.436 157.804 124.501 156.89 124.603 155.459C124.891 151.397 125.474 143.17 125.748 139.109C125.856 137.472 126.355 136.32 127.203 135.687Z" fill="#263238"/>
<path d="M126.988 130.089H139.929L135.005 127.589C134.48 127.325 133.901 127.187 133.314 127.185C132.693 127.185 132.081 127.34 131.535 127.637L126.988 130.089Z" fill="#455A64"/>
<rect x="129.137" y="129.57" width="8.64337" height="10.7722" fill="#455A64"/>
<rect x="127.722" y="139.945" width="11.1832" height="1.73811" rx="0.869053" fill="#455A64"/>
<path d="M125.553 136.96C125.52 136.674 125.52 136.384 125.553 136.098C125.553 135.478 125.587 134.697 125.607 133.767C125.667 131.8 125.782 129.085 125.923 126.08C125.964 125.326 125.977 124.605 126.051 123.884C126.127 123.188 126.304 122.507 126.577 121.863C127.042 120.775 127.774 119.823 128.706 119.094C129.326 118.603 130.028 118.227 130.781 117.983C130.983 117.916 131.19 117.865 131.4 117.828C131.542 117.828 131.623 117.787 131.623 117.828C131.365 117.948 131.099 118.052 130.828 118.138C130.115 118.423 129.451 118.819 128.861 119.31C127.977 120.03 127.284 120.955 126.84 122.004C126.588 122.621 126.425 123.269 126.355 123.931C126.294 124.605 126.28 125.366 126.24 126.114C126.099 129.112 125.95 131.827 125.822 133.794C125.755 134.724 125.701 135.498 125.654 136.118C125.651 136.402 125.617 136.684 125.553 136.96Z" fill="#263238"/>
<path d="M135.867 118.158C135.937 118.164 136.005 118.182 136.069 118.212C136.26 118.278 136.445 118.362 136.621 118.461C137.289 118.805 137.893 119.26 138.407 119.808C139.176 120.619 139.744 121.6 140.064 122.672C140.24 123.304 140.339 123.955 140.36 124.612C140.408 125.285 140.455 125.959 140.502 126.68C140.691 129.516 140.845 132.069 140.94 133.942C140.94 134.818 141.007 135.552 141.027 136.145C141.059 136.416 141.059 136.69 141.027 136.96C140.959 136.698 140.918 136.429 140.906 136.159C140.852 135.566 140.785 134.811 140.704 133.962C140.549 132.103 140.354 129.536 140.165 126.7C140.118 125.993 140.077 125.299 140.03 124.632C140.016 123.999 139.926 123.37 139.761 122.759C139.468 121.728 138.946 120.776 138.232 119.977C137.542 119.252 136.744 118.639 135.867 118.158Z" fill="#263238"/>
<path d="M127.129 155.21C127.129 155.21 128.76 157.043 130.1 157.454H136.446C137.656 157.105 138.733 156.401 139.539 155.433L127.129 155.21Z" fill="#455A64"/>
<path d="M131.118 158.808H135.274C137.755 158.808 139.77 160.813 139.781 163.295V163.766H126.611V163.295C126.622 160.813 128.636 158.808 131.118 158.808V158.808Z" fill="#455A64"/>
<rect x="129.757" y="156.308" width="6.77053" height="3.54358" fill="#455A64"/>
<rect x="123.498" y="163.443" width="19.1596" height="1.75832" rx="0.879158" fill="#455A64"/>
<path d="M138.232 139.951C136.608 140.125 134.973 140.183 133.341 140.127C131.711 140.183 130.078 140.125 128.457 139.951C130.078 139.769 131.71 139.709 133.341 139.77C134.973 139.709 136.608 139.77 138.232 139.951Z" fill="#263238"/>
<path d="M139.768 130.129C137.653 130.311 135.53 130.372 133.408 130.311C131.287 130.372 129.163 130.311 127.049 130.129C129.164 129.956 131.287 129.897 133.408 129.954C135.53 129.897 137.653 129.956 139.768 130.129Z" fill="#263238"/>
<path d="M136.608 157.333C135.494 157.505 134.366 157.564 133.24 157.508C132.114 157.564 130.985 157.505 129.871 157.333C130.985 157.16 132.114 157.101 133.24 157.157C134.366 157.101 135.494 157.16 136.608 157.333Z" fill="#263238"/>
<path d="M136.211 158.855C135.133 159.028 134.04 159.087 132.95 159.03C131.862 159.087 130.771 159.028 129.696 158.855C130.771 158.682 131.862 158.623 132.95 158.68C134.04 158.623 135.133 158.682 136.211 158.855Z" fill="#263238"/>
<path d="M141.095 163.537C141.095 163.638 137.834 163.712 133.819 163.712C129.804 163.712 126.537 163.638 126.537 163.537C126.537 163.436 129.797 163.362 133.819 163.362C137.841 163.362 141.095 163.443 141.095 163.537Z" fill="#263238"/>
<path d="M134.041 159.926C134.041 160.02 133.482 160.122 132.775 160.142C132.067 160.162 131.501 160.101 131.501 160.007C131.501 159.913 132.061 159.812 132.768 159.791C133.475 159.771 134.041 159.798 134.041 159.926Z" fill="white"/>
<path d="M134.573 141.023C134.573 141.117 134.061 141.211 133.428 141.238C132.795 141.265 132.283 141.198 132.283 141.097C132.283 140.996 132.788 140.908 133.421 140.888C134.055 140.868 134.567 140.922 134.573 141.023Z" fill="white"/>
<path d="M134.978 129.57C133.674 129.888 132.324 129.975 130.99 129.826C131.63 129.615 132.302 129.513 132.977 129.523C133.642 129.426 134.318 129.442 134.978 129.57Z" fill="white"/>
<path d="M124.482 150.037C124.358 149.089 124.347 148.13 124.448 147.18C124.441 146.225 124.547 145.273 124.765 144.344C124.897 145.291 124.908 146.251 124.798 147.2C124.813 148.155 124.707 149.108 124.482 150.037Z" fill="white"/>
<path d="M142.597 149.511C142.169 148.112 141.889 146.671 141.762 145.213C141.522 143.769 141.436 142.303 141.506 140.841C141.787 142.27 141.989 143.714 142.112 145.166C142.353 146.604 142.514 148.055 142.597 149.511Z" fill="white"/>
<path d="M137.41 153.991L136.925 162.372L136.534 153.991L129.238 153.6L136.521 153.216L136.958 144.957L137.309 153.223L146.666 153.634L137.41 153.991Z" fill="white"/>
<path d="M136.278 153.466L134.385 150.427L136.743 153.142L136.278 153.466Z" fill="white"/>
<path d="M136.952 153.257L139.491 150.764L137.356 153.668L136.952 153.257Z" fill="white"/>
<path d="M137.41 153.863L139.296 156.901L136.938 154.186L137.41 153.863Z" fill="white"/>
<path d="M136.729 154.072L134.196 156.565L136.325 153.668L136.729 154.072Z" fill="white"/>
<path d="M144.766 80.0745C144.143 79.9414 143.53 79.7612 142.934 79.5355C141.809 79.1717 140.239 78.7069 138.508 78.269C136.776 77.8311 135.139 77.5279 134.008 77.3191C133.375 77.2381 132.749 77.112 132.135 76.9418C132.775 76.9147 133.417 76.9576 134.048 77.0698C135.579 77.27 137.097 77.5579 138.595 77.9322C140.093 78.295 141.569 78.7448 143.015 79.2795C143.626 79.4794 144.213 79.746 144.766 80.0745Z" fill="white"/>
<path d="M294.796 88.1317C294.754 87.9735 294.736 87.8101 294.742 87.6467C294.742 87.3166 294.742 86.8383 294.688 86.2185C294.688 84.952 294.634 83.1061 294.594 80.7347C294.553 75.9583 294.493 69.0665 294.425 60.5242C294.425 56.2665 294.385 51.5978 294.358 46.5924C294.358 44.0863 294.358 41.4926 294.358 38.8248C294.358 37.4774 294.358 36.1301 294.358 34.7827C294.358 34.4391 294.358 34.109 294.358 33.7452V33.2736L294.284 32.8155C294.152 32.1979 293.888 31.6163 293.509 31.1111C292.738 30.0598 291.531 29.4155 290.228 29.3595C288.834 29.3595 287.338 29.3595 285.876 29.3595H276.795H257.824C231.813 29.3595 208.275 29.2989 191.23 29.2046H189.654C189.125 29.2129 188.596 29.1881 188.071 29.1305C187.042 28.987 186.055 28.629 185.174 28.0795C183.555 27.0624 182.406 25.4435 181.981 23.5793C181.813 22.7575 181.752 21.9174 181.799 21.0799C181.799 20.2917 181.799 19.5372 181.799 18.8096C181.799 17.3612 181.832 16.0408 181.846 14.8484C181.886 12.4703 181.92 10.6244 181.94 9.35784C181.94 8.73805 181.981 8.26647 181.994 7.92963C181.989 7.76623 182.007 7.60296 182.048 7.44458C182.089 7.60296 182.107 7.76623 182.102 7.92963C182.102 8.26647 182.102 8.73805 182.156 9.35784C182.156 10.6244 182.21 12.4703 182.25 14.8484C182.25 16.0408 182.284 17.3612 182.297 18.8096C182.297 19.5372 182.297 20.2917 182.297 21.0799C182.266 21.8738 182.336 22.6685 182.506 23.4446C182.926 25.1321 183.997 26.5851 185.484 27.4867C186.285 27.979 187.184 28.2916 188.118 28.4029C189.048 28.5039 190.139 28.4029 191.183 28.4501C208.227 28.3557 231.766 28.2951 257.777 28.2951H276.748H285.768C287.257 28.2951 288.679 28.2951 290.168 28.2951C291.772 28.3655 293.258 29.158 294.21 30.4509C294.668 31.072 294.987 31.7842 295.146 32.5393L295.227 33.1052V33.6644V34.7018C295.227 36.0492 295.227 37.3966 295.227 38.7439C295.227 41.4387 295.227 44.0054 295.227 46.5115C295.227 51.517 295.18 56.1856 295.16 60.4433C295.092 68.9587 295.032 75.8505 294.998 80.6538C294.951 83.0252 294.917 84.8711 294.897 86.1376C294.897 86.7574 294.856 87.2357 294.843 87.5658C294.859 87.7558 294.843 87.9471 294.796 88.1317Z" fill="#455A64"/>
<rect x="280.103" y="80.1351" width="38.5752" height="49.5427" fill="#263238"/>
<rect x="273.945" y="80.1351" width="38.5752" height="49.5427" fill="#455A64"/>
<path d="M307.663 124.895C307.656 124.827 307.656 124.76 307.663 124.693C307.663 124.551 307.663 124.362 307.663 124.12C307.663 123.608 307.663 122.867 307.663 121.91C307.663 119.977 307.663 117.194 307.623 113.624C307.623 106.517 307.576 96.4585 307.542 84.5747L307.704 84.7296H278.803L278.978 84.5545C278.978 99.645 278.978 113.604 278.944 124.874L278.803 124.733L299.788 124.807H305.629H307.165H307.704H307.198H305.683L299.875 124.848L278.803 124.922H278.661V124.895C278.661 113.624 278.661 99.6652 278.661 84.5747L278.836 84.3995H307.737H307.899V84.5612C307.865 96.4922 307.838 106.584 307.818 113.712C307.818 117.242 307.785 120.037 307.778 121.964C307.778 122.907 307.778 123.635 307.778 124.14C307.778 124.376 307.778 124.558 307.778 124.699C307.778 124.841 307.663 124.895 307.663 124.895Z" fill="#263238"/>
<path d="M293.213 94.808C293.213 94.808 284.617 108.726 284.832 108.598C285.048 108.47 301.061 108.598 301.061 108.598L293.213 94.808Z" fill="white"/>
<path d="M292.189 100.662H294.082L293.078 103.121H294.749L292.162 107.352L292.559 104.556H291.138L292.189 100.662Z" fill="#455A64"/>
<circle cx="281.228" cy="105.836" r="1.12505" fill="#263238"/>
<rect x="198.493" y="27.2644" width="1.28674" height="3.74568" fill="#455A64"/>
<rect x="266.73" y="27.2644" width="1.28674" height="3.74568" fill="#455A64"/>
<path d="M292.93 50.978V49.6913H296.675V50.978H292.93Z" fill="#455A64"/>
<rect x="42.7368" y="189.568" width="1.28674" height="3.74568" fill="#455A64"/>
<path d="M65.9656 215.815V214.528H69.7113V215.815H65.9656Z" fill="#455A64"/>
<path d="M65.9656 269.878V268.592H69.7113V269.878H65.9656Z" fill="#455A64"/>
<path d="M11.8215 191.441C11.9822 191.4 12.1477 191.382 12.3133 191.387L13.7415 191.333L19.2455 191.232L39.4561 191.071L53.4215 191.003H61.2093C61.883 191.003 62.5095 191.003 63.2775 191.003C64.023 191.083 64.7447 191.312 65.3996 191.677C66.7381 192.431 67.7112 193.699 68.0944 195.187C68.2577 195.921 68.3211 196.673 68.283 197.424C68.283 198.138 68.283 198.858 68.283 199.579C68.283 201.025 68.283 202.487 68.283 203.965C68.283 206.92 68.283 209.936 68.283 213.013C68.283 219.157 68.283 225.516 68.283 232.037C68.283 258.109 68.2291 281.708 68.1281 298.793C68.0607 307.328 68.0068 314.234 67.9664 319.003C67.9192 321.381 67.8855 323.234 67.8653 324.501C67.8653 325.12 67.8249 325.599 67.8114 325.929C67.8209 326.095 67.8027 326.261 67.7575 326.421C67.721 326.259 67.703 326.094 67.7036 325.929C67.7036 325.599 67.7036 325.12 67.6497 324.501C67.6497 323.234 67.5958 321.381 67.5554 319.003C67.515 314.213 67.4544 307.308 67.387 298.793C67.2927 281.708 67.2321 258.109 67.2321 232.037C67.2321 225.516 67.2321 219.157 67.2321 213.013C67.2321 209.941 67.2321 206.925 67.2321 203.965C67.2321 202.492 67.2321 201.03 67.2321 199.579C67.2321 198.858 67.2321 198.138 67.2321 197.424C67.2733 196.746 67.2235 196.066 67.0839 195.402C66.762 194.163 65.9497 193.107 64.8337 192.479C64.2923 192.173 63.6937 191.983 63.0754 191.92C62.4893 191.866 61.7281 191.92 61.1083 191.92H53.3205L39.355 191.852L19.1445 191.684L13.6405 191.589L12.2123 191.536C12.0789 191.519 11.9478 191.487 11.8215 191.441H11.8215Z" fill="#455A64"/>
<rect x="182.129" y="271.69" width="76.4564" height="54.9659" fill="#3ED0A3"/>
<path d="M202.636 271.69C202.744 271.69 202.636 283.298 202.636 283.298H196.977V271.69H202.636Z" fill="#263238"/>
<g opacity="0.4">
<rect x="258.585" y="326.663" width="38.2248" height="54.9659" transform="rotate(180 258.585 326.663)" fill="black"/>
</g>
<rect x="184.46" y="315.898" width="10.2333" height="7.24211" fill="#FAFAFA"/>
<rect x="196.586" y="315.898" width="5.12" height="7.24211" fill="#FAFAFA"/>
<path d="M327.591 326.656C327.591 326.757 260 326.832 176.638 326.832C93.2766 326.832 25.6724 326.757 25.6724 326.656C25.6724 326.555 93.2496 326.481 176.638 326.481C260.027 326.481 327.591 326.562 327.591 326.656Z" fill="#263238"/>
</svg>
