<svg width="16" height="16" viewBox="0 0 16 16" fill="none" xmlns="http://www.w3.org/2000/svg">
  <path fill-rule="evenodd" clip-rule="evenodd"
    d="M0 2.26604C0 1.60728 0.534035 1.07324 1.1928 1.07324H14.8072C15.466 1.07324 16 1.60728 16 2.26604C16 2.92481 15.466 3.45884 14.8072 3.45884H1.1928C0.534036 3.45884 0 2.92481 0 2.26604ZM0 7.99149C0 7.33272 0.534035 6.79869 1.1928 6.79869H14.8072C15.466 6.79869 16 7.33272 16 7.99149C16 8.65026 15.466 9.18429 14.8072 9.18429H1.1928C0.534036 9.18429 0 8.65026 0 7.99149ZM1.1928 12.5241C0.534036 12.5241 0 13.0582 0 13.7169C0 14.3757 0.534036 14.9097 1.1928 14.9097H14.8072C15.466 14.9097 16 14.3757 16 13.7169C16 13.0582 15.466 12.5241 14.8072 12.5241H1.1928Z"
    fill="#DCDEE3" />
</svg>