<svg width="19" height="24" viewBox="0 0 19 24" fill="none" xmlns="http://www.w3.org/2000/svg">
<path fill-rule="evenodd" clip-rule="evenodd" d="M9.49562 2.28919C10.4706 2.28919 11.4068 2.46122 12.2756 2.77617V2.66916C12.2756 1.19738 11.0782 0 9.60648 0H9.38527C7.91349 0 6.71612 1.19738 6.71612 2.66916V2.77481C7.58443 2.4608 8.52034 2.28919 9.49562 2.28919ZM6.18301 21.7989C6.74546 23.0705 8.01835 23.9604 9.49585 23.9604C10.9734 23.9604 12.2462 23.0705 12.8087 21.7989H6.18301ZM0.722305 20.3927H18.2694C18.6014 20.3927 18.9054 20.1688 18.9745 19.8441C19.0429 19.5225 18.8963 19.2052 18.599 19.0679C18.5284 19.0222 17.9975 18.6508 17.4659 17.5275C16.4895 15.4645 16.2846 12.5585 16.2846 10.4839C16.2846 10.4798 16.2845 10.4758 16.2845 10.4718C16.2844 10.4668 16.2842 10.4619 16.2841 10.4569C16.2696 6.726 13.2299 3.69544 9.49562 3.69544C5.75246 3.69544 2.70713 6.74067 2.70713 10.4839C2.70713 12.5585 2.5022 15.4645 1.52584 17.5275C0.994227 18.6508 0.463227 19.0221 0.39268 19.0679C0.0953991 19.2052 -0.0511321 19.5225 0.0172116 19.8441C0.0862585 20.1688 0.390337 20.3927 0.722305 20.3927Z" fill="white"/>
</svg>
