<svg width="87" height="87" viewBox="0 0 87 87" fill="none" xmlns="http://www.w3.org/2000/svg">
<circle cx="43.5" cy="43.5" r="43" fill="white" stroke="#E8ECF0"/>
<path fill-rule="evenodd" clip-rule="evenodd" d="M33.215 37.0075L51.3667 27.7142L45.1317 24.6525C44.7117 24.4492 44.2317 24.4492 43.8317 24.6525L26 33.4575L33.215 37.0075ZM44.51 42.6075L62.98 33.4575L55.765 29.9058L54.765 29.3992L36.5933 38.6908L37.5933 39.1992L44.51 42.6075ZM43.03 45.2442L43.01 64.4992L25.32 55.2675C24.82 55.0042 24.5 54.4758 24.5 53.9075V36.0942L31.9967 39.7875V46.2808C31.9967 47.1125 32.6767 47.8025 33.4967 47.8025C34.3167 47.8025 34.9967 47.1125 34.9967 46.2808V41.2892L35.9967 41.7758L43.03 45.2442ZM46.03 45.2242L64.48 36.1142L64.5 54.8242L46.01 64.4792L46.03 45.2242Z" fill="#16284D"/>
</svg>
