<svg width="26" height="22" viewBox="0 0 26 22" fill="none"
    xmlns="http://www.w3.org/2000/svg">
    <path fill-rule="evenodd" clip-rule="evenodd" d="M23.6528 0.346695C24.9485 0.348178 25.9985 1.3982 26 2.69392V13.4031H0V2.69392C0.00148267 1.3982 1.0515 0.348178 2.34722 0.346695H23.6528ZM0 14.5767V15.0168C0.00148267 16.3126 1.0515 17.3626 2.34722 17.3641H8.7554V18.5296L7.50156 20.7423C7.39867 20.924 7.40004 21.1467 7.50518 21.3271C7.61031 21.5074 7.80337 21.6184 8.01215 21.6184H17.9878C18.1966 21.6184 18.3897 21.5074 18.4948 21.3271C18.6 21.1467 18.6013 20.924 18.4984 20.7423L17.2446 18.5296V17.3641H23.6528C24.9485 17.3626 25.9985 16.3126 26 15.0168V14.5767H0ZM16.071 18.0976H9.92901V17.5108H16.071V18.0976Z" fill="#9AA1AF"/>
</svg>
