<svg width="18" height="24" viewBox="0 0 18 24" fill="none" xmlns="http://www.w3.org/2000/svg">
<path fill-rule="evenodd" clip-rule="evenodd" d="M11.121 1.5H12.75C13.164 1.5 13.5 1.836 13.5 2.25V5.25C13.5 5.664 13.164 6 12.75 6H5.25C4.836 6 4.5 5.664 4.5 5.25V2.25C4.5 1.836 4.836 1.5 5.25 1.5H6.8775C7.188 0.627 8.022 0 9 0C9.978 0 10.812 0.627 11.121 1.5ZM15 3H16.5C17.3415 3 18 3.6585 18 4.5V22.5C18 23.3415 17.3415 24 16.5 24H1.5C0.6585 24 0 23.3415 0 22.5V4.5C0 3.6735 0.6735 3 1.5 3H3V5.25C3 6.4905 4.0095 7.5 5.25 7.5H12.75C13.9905 7.5 15 6.4905 15 5.25V3ZM5.781 19.281L8.781 16.281C9.0735 15.987 9.072 15.513 8.7795 15.2205C8.487 14.928 8.0115 14.928 7.719 15.2205L5.25 17.6895L4.2795 16.7205C3.987 16.428 3.5115 16.428 3.219 16.7205C2.9265 17.013 2.9265 17.4885 3.219 17.781L4.719 19.281C4.866 19.4265 5.058 19.5 5.25 19.5C5.442 19.5 5.634 19.4265 5.781 19.281ZM8.781 10.281L5.781 13.281C5.634 13.4265 5.442 13.5 5.25 13.5C5.058 13.5 4.866 13.4265 4.719 13.281L3.219 11.781C2.9265 11.4885 2.9265 11.013 3.219 10.7205C3.5115 10.428 3.987 10.428 4.2795 10.7205L5.25 11.6895L7.719 9.2205C8.0115 8.928 8.487 8.928 8.7795 9.2205C9.072 9.513 9.0735 9.987 8.781 10.281ZM10.5 17.25C10.5 17.664 10.836 18 11.25 18H14.25C14.664 18 15 17.664 15 17.25C15 16.836 14.664 16.5 14.25 16.5H11.25C10.836 16.5 10.5 16.836 10.5 17.25ZM14.25 12H11.25C10.836 12 10.5 11.664 10.5 11.25C10.5 10.836 10.836 10.5 11.25 10.5H14.25C14.664 10.5 15 10.836 15 11.25C15 11.664 14.664 12 14.25 12Z" fill="#9AA1AF"/>
</svg>
