<svg width="26" height="26" viewBox="0 0 26 26" fill="none" xmlns="http://www.w3.org/2000/svg">
<path fill-rule="evenodd" clip-rule="evenodd" d="M20.2437 16.6519C20.212 16.6519 1.25966 12.8498 1.23043 12.8352C1.07939 12.7646 0.972241 12.6111 1.00637 12.4479L1.10867 11.9364C1.14033 11.7756 1.30109 11.6733 1.46672 11.666C2.02693 11.6417 2.52138 11.2398 2.63586 10.6649C2.75037 10.0901 2.45077 9.52989 1.94412 9.29119C1.79313 9.22055 1.68593 9.06467 1.7176 8.90147L1.8199 8.38997C1.85156 8.22922 2.01232 8.12692 2.17795 8.11961C2.73816 8.09525 3.23261 7.69336 3.34709 7.11853C3.4616 6.5437 3.16198 5.98348 2.65535 5.74478C2.50433 5.67415 2.39716 5.51826 2.42883 5.35507L2.53113 4.84357C2.56279 4.68281 2.72352 4.58051 2.88918 4.5732C3.44939 4.54884 3.94384 4.14695 4.05832 3.57212C4.1728 2.99729 3.87321 2.43707 3.36658 2.19837C3.21556 2.12774 3.10839 1.97185 3.14006 1.80866L3.25453 1.24114C3.28376 1.09986 3.40798 1 3.54926 1C3.56874 1 22.6136 4.81921 22.6136 4.81921C22.7768 4.85087 22.8816 5.00919 22.8499 5.17239L22.7354 5.73991C22.7037 5.90067 22.543 6.00297 22.3774 6.01028C21.8172 6.03463 21.3227 6.43653 21.2082 7.01136C21.0937 7.58619 21.3933 8.1464 21.8999 8.3851C22.051 8.45574 22.1582 8.61162 22.1265 8.77482L22.0242 9.28632C21.9925 9.44708 21.8318 9.54938 21.6661 9.55668C21.1059 9.58104 20.6115 9.98293 20.497 10.5578C20.3825 11.1326 20.6821 11.6928 21.1887 11.9315C21.3397 12.0021 21.4469 12.158 21.4153 12.3212L21.3884 12.4601L21.3129 12.8352C21.2813 12.9959 21.1205 13.0982 20.9549 13.1055C20.3947 13.1299 19.9002 13.5318 19.7857 14.1066C19.6712 14.6814 19.9709 15.2417 20.4775 15.4804C20.6285 15.551 20.7357 15.7069 20.704 15.8701L20.6017 16.3816C20.57 16.5423 20.4093 16.6446 20.2437 16.6519ZM18.1806 6.11504C17.8518 6.04927 17.5303 6.26361 17.4645 6.59244L16.7192 10.3069L16.1663 13.0569C16.1005 13.3857 16.3148 13.7072 16.6437 13.773C16.6826 13.7803 16.724 13.7851 16.763 13.7851C17.048 13.7851 17.3013 13.5854 17.3598 13.2955L17.8542 10.8306L18.658 6.83114C18.7238 6.50232 18.5094 6.1808 18.1806 6.11504ZM6.48427 4.38811C6.55004 4.05929 6.87155 3.84494 7.20038 3.91071C7.5292 3.97647 7.74354 4.29799 7.67778 4.62681L7.4001 6.00786L7.08592 7.57403L6.83261 8.83573L6.382 11.0912C6.32357 11.3811 6.07023 11.5808 5.78525 11.5808C5.74628 11.5808 5.70487 11.5759 5.66592 11.5686C5.64887 11.5662 5.63182 11.5613 5.61721 11.5565C5.31518 11.4687 5.1276 11.1643 5.19096 10.8525L5.28105 10.3971L5.51732 9.21817L6.48427 4.38811ZM20.9939 13.9581C21.5663 13.9337 22.0437 13.5416 22.1508 13.0033L22.1921 12.8255L24.8154 14.0361C24.9664 14.1067 25.0322 14.2845 24.9615 14.4355L24.7204 14.9616C24.6498 15.1126 24.472 15.1735 24.3088 15.1419C23.7583 15.0347 23.1859 15.3124 22.9399 15.8433C22.6939 16.3743 22.8546 16.9906 23.2931 17.3389C23.4222 17.4436 23.4928 17.619 23.4222 17.77L23.203 18.245C23.1323 18.396 22.9545 18.4569 22.7913 18.4252C22.2409 18.318 21.6685 18.5957 21.4225 19.1267C21.1765 19.6577 21.3372 20.2739 21.7757 20.6222C21.9047 20.727 21.9754 20.9023 21.9047 21.0533L21.6855 21.5283C21.6149 21.6793 21.4371 21.7402 21.2739 21.7085C20.7234 21.6014 20.1511 21.879 19.905 22.41C19.659 22.941 19.8198 23.5572 20.2582 23.9056C20.3873 24.0103 20.4579 24.1857 20.3873 24.3367L20.1681 24.8116C20.0975 24.9626 19.9197 25.0235 19.7565 24.9919C19.7273 24.9846 2.17059 16.8907 2.14623 16.8712C2.01712 16.7664 1.9465 16.5911 2.01712 16.4401L2.23633 15.9651C2.30697 15.8141 2.48477 15.7532 2.64797 15.7849C3.19842 15.892 3.77081 15.6144 4.01684 15.0834C4.13376 14.8301 4.15811 14.5597 4.10453 14.3064C4.10698 14.3064 4.10942 14.307 4.11187 14.3076C4.1143 14.3082 4.11673 14.3088 4.11917 14.3088C4.1693 14.3186 4.21944 14.329 4.26957 14.3394C4.31929 14.3497 4.36902 14.36 4.41876 14.3697L5.0691 14.5012C5.38574 14.5646 5.69995 14.6279 6.01416 14.6912C6.18828 14.7258 6.36289 14.7609 6.53776 14.7961C6.75672 14.8401 6.9761 14.8842 7.19548 14.9275C7.42322 14.9726 7.65035 15.0182 7.87748 15.0639C8.10461 15.1096 8.33174 15.1552 8.55948 15.2003L10.0501 15.4999C10.3181 15.5537 10.5854 15.6076 10.8527 15.6614C11.1054 15.7123 11.3581 15.7632 11.6114 15.8141C11.8437 15.8606 12.0765 15.9075 12.3096 15.9545C12.6019 16.0134 12.8946 16.0725 13.1874 16.1307C13.6259 16.2205 14.0662 16.3085 14.5053 16.3963C14.5783 16.4109 14.6513 16.4255 14.7243 16.4401C14.9638 16.4887 15.2033 16.5367 15.4427 16.5847C15.6831 16.6329 15.9235 16.6811 16.1638 16.7299C16.3782 16.7725 16.5932 16.8158 16.8082 16.859C17.0231 16.9023 17.238 16.9455 17.4523 16.9881C17.6328 17.0247 17.8133 17.0607 17.9939 17.0967C18.1738 17.1325 18.3538 17.1684 18.5338 17.2049C18.6702 17.2317 18.8066 17.2591 18.943 17.2865C19.0794 17.3139 19.2158 17.3413 19.3522 17.3681C19.3918 17.3759 19.4315 17.3836 19.4712 17.3913C19.6173 17.4196 19.7639 17.4481 19.9075 17.4825C20.5602 17.6433 21.3056 17.2219 21.4396 16.5472L21.5419 16.0357C21.6515 15.4974 21.3616 14.9518 20.8428 14.7083C20.6796 14.6327 20.5895 14.4525 20.626 14.2747C20.6602 14.0969 20.8136 13.9654 20.9939 13.9581Z" fill="#9AA1AF"/>
</svg>
