<svg width="26" height="24" viewBox="0 0 26 24" fill="none" xmlns="http://www.w3.org/2000/svg">
<path fill-rule="evenodd" clip-rule="evenodd" d="M13 9.46798C15.44 9.46798 17.418 7.48999 17.418 5.05001C17.418 2.61003 15.44 0.632042 13 0.632042C10.56 0.632042 8.58203 2.61003 8.58203 5.05001C8.58203 7.48999 10.56 9.46798 13 9.46798ZM21.9375 9.46793C23.48 9.46793 24.7305 8.21747 24.7305 6.67496C24.7305 5.13245 23.48 3.88199 21.9375 3.88199C20.395 3.88199 19.1445 5.13245 19.1445 6.67496C19.1445 8.21747 20.395 9.46793 21.9375 9.46793ZM6.85547 6.67496C6.85547 8.21747 5.60501 9.46793 4.0625 9.46793C2.51999 9.46793 1.26953 8.21747 1.26953 6.67496C1.26953 5.13245 2.51999 3.88199 4.0625 3.88199C5.60501 3.88199 6.85547 5.13245 6.85547 6.67496ZM3.84629 11.1919C4.93307 11.1807 5.83231 11.1715 6.81434 11.9761C4.51171 14.3269 4.55245 16.8034 4.60467 19.9775C4.61274 20.4683 4.62109 20.9758 4.62109 21.5021C4.62109 21.5263 4.62639 21.547 4.63092 21.5648C4.63576 21.5837 4.63972 21.5992 4.63537 21.6118C4.6158 21.6687 4.42812 21.6676 3.39662 21.6616C2.94386 21.659 2.32853 21.6555 1.49348 21.6555C0.669805 21.6555 0 20.9882 0 20.1676V14.6218C0 12.7322 1.5468 11.1945 3.44805 11.1945C3.58378 11.1945 3.71638 11.1932 3.84629 11.1919ZM14.2091 11.2148C11.9887 11.0296 10.0588 11.2169 8.39414 12.591C6.00612 14.5038 6.05916 16.9846 6.12298 19.9693C6.13361 20.4663 6.14453 20.9774 6.14453 21.5021C6.14453 22.4745 6.9357 23.2804 7.92289 23.2804C10.0145 23.2804 11.7142 23.2936 13.1001 23.3043H13.1002C18.8164 23.3486 19.1925 23.3515 19.7041 22.2186L19.707 22.2121C19.7333 22.1519 19.7554 22.1016 19.7738 22.05C19.8675 21.7869 19.8665 21.49 19.8602 19.6804C19.8581 19.083 19.8555 18.3206 19.8555 17.34C19.8555 13.7231 16.7236 11.2148 14.2091 11.2148ZM22.1544 11.1919C22.284 11.1932 22.4163 11.1945 22.552 11.1945C24.4532 11.1945 26 12.7321 26 14.6217V20.1147C26 20.9643 25.3063 21.6554 24.4532 21.6554C21.7725 21.6554 21.4042 21.6956 21.3712 21.6085C21.3619 21.5842 21.3789 21.5499 21.3789 21.5021C21.3789 20.9566 21.3866 20.4364 21.394 19.9381C21.4428 16.6488 21.4774 14.3158 19.1857 11.976C20.1671 11.1719 21.0625 11.1809 22.1544 11.1919Z" fill="#9AA1AF"/>
</svg>
